<svg version="1.0" xmlns="http://www.w3.org/2000/svg" viewBox="0 0 1507 1508">
  <g fill="#FFF" stroke-width="0">
    <path
      d="M750 36a2296 2296 0 0 1-73 2 1550 1550 0 0 0-101 11c-42 6-69 15-84 27-8 7-9 12-7 30 2 9 4 15 6 15s1 9-2 19-5 16-14 30l-7 12 6 5c23 22 106 41 208 47a1657 1657 0 0 0 140 2c70-3 135-10 179-21 20-5 40-13 51-21 5-3 5-3 7-1 2 0 3 2 3 3l3 3 1 3 3 6 6 10 4 8 3 6 1 2 1 1 3 4c2 1 2 4 2 4l2 3 2 4c0 2 1 3 2 3l1 3 1 4 2 2 1 9v50a549 549 0 0 0-1 60 5744 5744 0 0 0-2 202 7117 7117 0 0 1-1 135 4480 4480 0 0 0-2 174 8147 8147 0 0 0 1 107 99661 99661 0 0 1 6-638v-95l-2-8c-3-10-11-27-25-51l-11-19-9-14c-11-19-16-33-18-48l1-8c4-2 5-8 5-19 1-9 0-11-2-15l-6-9c-11-9-39-18-73-25a620 620 0 0 0-89-11l-23-1-36-2h-63zm36 61 10 4-6-1c-6 0-6 0-5 1l6 2c5 0 8 1 5 2-2 1-14 0-14-1l-4-2c-5-1-7-3-4-3 1 0 1-2-1-7 0-2 0-2 2-1l11 6zm-105 8c-1 1 0 2 2 2l3 1 7 3 7 1 12 2a114 114 0 0 1 20 5c7 2 12 3 23 8l15 5 7 3h-15c-15-1-29-3-30-5h-1l1 2c2 2 2 2-2 2l-8-1-16-4-10-2h13l9 1-4-1-9-2c-3-1-6-2-7-1l-2-1-4-1c-4 0-4 0-2-1 7-1 5-2-1-2h-7v-3l2-4c4 0 1-2-3-1-3 0-3 0-3-2l1-4v-1l-1-3 2 1c1 1 2 2 1 3zm158 7 7 2c2 1-1 1-13 1l-25 1h17c13 0 20 0 34 2l20 2c3-1 9 1 9 2 0 4-13 6-23 3h-27c-3 0-16-1-28-4-13-3-15-5-6-7a163 163 0 0 1 35-2zm-337 16a333 333 0 0 0 86 22 1154 1154 0 0 0 258 8 726 726 0 0 0 178-29c2 0 3 1 3 2l8 30c3 6 4 8 5 6l1-1-2 4-5 3-1 1a509 509 0 0 1-135 31 1255 1255 0 0 1-301-6c-50-7-93-20-107-32-6-5-6-6-3-8 2-2 2-3 2-5v-2l2-3c0-3 1-5 2-5v-4c0-4 0-5 2-6 2-2 2-2 1-3-4-3 2-6 6-3z" />
    <path
      d="m749 286-17 1c-37 2-88 11-125 23-37 11-70 30-93 53-39 39-60 93-69 173-4 37-4 57-4 183a1774 1774 0 0 0 12 230 521 521 0 0 0 52 163 278 278 0 0 0 210 146 293 293 0 0 0 309-160c33-67 50-147 55-257l3-242c-4-138-34-214-103-260-14-10-34-20-48-25a519 519 0 0 0-182-28zm54 29c16 1 20 2 37 5a314 314 0 0 1 148 59 888 888 0 0 0 13 12l7 8 8 10c16 22 17 24 27 47a349 349 0 0 1 25 105l3 72-1 16-8 4-10 4-1-28c-2-86-24-152-65-196l-23-20a197 197 0 0 0-53-30 431 431 0 0 0-215-20c-85 13-145 48-181 106l-7 12c0 2 1 1 3-3 6-13 19-29 32-42 31-31 72-52 127-64 58-13 136-13 193 1 54 13 96 37 126 70 29 33 47 76 56 132 3 21 4 32 5 61v26l-4 2c-6 3-22 7-37 11-22 6-57 12-59 11l-1-12c0-32-8-63-24-89-28-46-79-75-145-80-28-2-63 2-88 11l-11 3a163 163 0 0 0-103 152l-1 12h-7l-19-4a266 266 0 0 1-96-34c-3-3-1-53 3-90 4-32 12-68 19-86l3-8c3-8 15-29 21-38a198 198 0 0 1 87-75 313 313 0 0 1 88-24l4 2c2 0 2 0 0-1l-2-1 2-1c2 0 2-1 1-1-3 0 3-2 8-2l4-1 7-1a615 615 0 0 0 41-4h13l51 1zm-23 209c38 4 70 16 96 36 22 18 39 44 47 72 7 23 7 26 7 98l-1 75-1 12v-9l-2-44c0-2-1-4-3-5-1-2-2-4-1-5l-2-3-3-3-1-2c-2-1-3-1-6 2-4 4-10 7-16 9-4 0-5 1-5 3a661 661 0 0 0 2 70h4l1 2c0 4-1 4-6 1-5-2-5-2-6 0l-3 5c-1 3-2 4-5 6l-7 3c-4 2-7 2-8 0 0-4-2-4-4-3s-3 2-5 1-3-1-8 2c-6 2-7 2-10 0-2-1-3-1-9 4l-3 3-2-3c-3-3-5-4-9-1-6 3-21 2-24-2-2-3-11-3-12 0 0 3-5 4-9 3h-5c-4 1-5-3-5-25a951 951 0 0 0-2-65l1-4 1 4 1 18c0 16 1 22 4 24h3l1-15v-14h6l1-19v-19h3l5 1c1 2 2 13 1 23v11l5 2 3 1v12c0 9 1 11 2 13l3 3 3-6c2-8 2-6 3 5 1 9 2 11 5 11 2 0 2-1 3-17v-36c-1-27-1-27 1-28l1 9c0 9 1 13 5 12l2-13 1-12c1-1 4 0 6 3 2 2 5 22 5 35 0 8 1 12 4 11 2-1 2 0 3 2 0 3 1 4 3 4l2-1c0-2 6-3 7-2l1 15 1 17h6l1 9 3 9c3 3 5-4 5-27 1-11 1-12 4-12l2-1 2-2 2 3c1 3 4 2 5-2v-31c0-29 0-33 4-33 3 0 6 7 7 17 1 11 2 12 8 7l4-4v-9c0-12-2-15-7-18l-7-2c-5 0-6-1-6-4 0-4-3-10-9-16-6-7-12-9-22-9l-8-2-4-2v-3c2-3 0-4-4-3s-10 0-11-2l-3-5c-5-7-5-7-44-7l-45 1h-11v-2c1-4-1-5-5-5-4 1-12-1-12-2l2-3c4-3 4-4 0-5-2-1-2-1-1-3 2-3 2-6 1-9-2-3-5-2-6 2-4 9-4 4-5-50v-52l4-1c21-8 52-11 80-9zm-109 27-1 17c0 13 0 14 2 19s2 6 1 10l-2 11c-1 6-1 8 1 12 2 3 2 7 3 15v10l-4 2-6 2c-2 1-2 2-2 3l2 4c1 3-2 2-5-1-2-3-2-5-2-23l3-80c1-2 6-5 8-5l1 4zm18 70a1087 1087 0 0 1-3-54v-11l1 17 2 48zm-48-45a1454 1454 0 0 1 0 62c-2 1-2 1-2-3a745 745 0 0 1 1-68l1 9zm-29 33c0 16 1 22 2 24l4 2 3 6h-4c-3 0-4 0-4 2l2 4v4c-3 2-2 4 1 6l1 3c-2 2-1 6 1 8 1 1 1 1 3-1 2-1 3-2 5-1 4 2 4 1 6-6 1-4 2-5 5-2h5l5 1c0 2 10 7 13 7l2 1 3 1c2 0 2 1 2 3 0 4 2 7 4 5 2-1 2-1 4 1 1 2 2 3 5 3h6c1-1 2-1 3 1 3 3 5 2 7-3l2-3-1 3c0 7-1 7-21 6-26-2-25-1-30-7l-3-7c0-3-6-7-9-5s-5 5-5 9 1 5 4 2c2-1 2-1 4 1 2 1 3 3 3 5 0 4 1 9 3 10 1 1 2 1 5-1 4-4 6-3 7 2 1 4 3 5 6 4s6 0 10 4l6 3c2-1 2-1 2 3v7c2 4 1 4 0 4-3 1-2 4 1 6l4 2c1 1-1 7-3 9-5 5-1 7 5 3 3-3 4-3 5-1 2 2 0 4-5 7l-4 3c0 2 4 3 7 3 2-1 3 0 5 2l3 2-2 2-4 2c-4 0-6 6-2 8l4-1c3-2 8 0 8 4 1 2 0 2-1 3-4 1-5 5-5 9l4 18c2 12 3 18 3 30v16h-6l-6-1-1-4c0-6-4-21-9-39l-2-7 2-2c2-2 2-3 1-5 0-3 0-3 1-2 2 2 9 28 10 36 0 9 3 13 6 11l1-10c0-10-2-20-8-39-3-9-4-10-7-12l-3-2-3 2c-2 3-2 3-5 2l-5-4c-1-3-1-3 2-2h3c2-2 1-5-2-8-4-5-8-3-6 2 1 3 1 3-1 3l-3 2c0 2 4 10 7 11 2 2 4 5 3 7v4c0 2-1 4-4 4l-2-2c0-2-3-5-8-5-5-1-7-4-5-7 3-2 2-4 0-5-5-4-10 0-6 5 2 3 1 6-2 6-2-1-4 1-4 5 0 3-1 4-3 4-2 1-3 1-2 4 0 4-1 5-3 3h-3c-1 2-3 2-5 1-3 0-4 0-5 2v8l-2-2c-1-6-7-8-10-4-2 2-1 12 2 15 2 2 3 2 8 1h8l17 8c2 0 2-1 2-11 0-12 2-15 3-8 1 4 2 5 3 5 2 0 2-1 3-6l-2-13c-2-7-2-9 0-7 1 1 6 21 7 31 1 11 0 14-4 17-2 1-3 1-9-1-6-1-8-2-9-4s-9-7-13-7l-6 3-7 3c-3 0-5 1-6 4-2 6 3 8 18 6 8-1 11 0 13 6 3 6 7 8 13 8 3-1 6-1 7-3l2-2 5 3 10 3c6 0 20 5 22 7 0 1-6 2-8 1l-8-1c-4 0-6-1-6-2 0-2-1-2-10-3-10 0-13 1-9 4l2 4-8-1-17-1-20-3c-12-1-14-1-14 2 0 5 5 12 12 16 4 2 5 2 13 2 9-1 15 0 20 3l10 2 27 2c25 3 32 2 46 0 11-2 12-2 20 0l10 2-26 1a384 384 0 0 1-73-2c-3 1-2 3 2 4 4 2 6 4 5 5l-39-4c-15-2-19-2-20-1s-1 1 1 4c3 3 8 5 15 5l11 2c5 2 15 10 15 12h-6a327 327 0 0 0-28-1l3 5 4 6 5 2 11 5c10 6 16 8 23 9l14 2h12l6-1c3 0 16 7 16 8a442 442 0 0 1-68-4c-3 2-1 4 16 19 8 8 8 8 17 7 8 0 9 0 14 2l9 3c4 0 7 1 14 4 10 6 16 7 24 4h12c8 3 13 2 17 0l3-4c-1-2-1-2-7-3-6 0-9-1-5-2l15-4 14-4 4 2c7 5 12 6 28 4 8-1 11-2 11-4s-7-4-18-5c-10-1-10-1-7-3 5-1 11-1 16 1l12 2 9 3 7 3c5 0 4 1-5 4-6 2-11 2-21 2a467 467 0 0 0-33 4l3 4c3 2 3 2 7 1h17c2 1 0 2-6 3-12 2-19 7-16 11h12c18-2 22-2 26-1 4 3 6 3 15-2s22-9 24-7c3 2-2 7-18 17a154 154 0 0 1-177-1c-37-24-64-65-75-111-4-19-5-28-5-83v-52l2 2c5 4 9 2 8-3-1-4-4-5-7-3l-3 2v-4c0-3 0-3 2-3 6 2 6-7 0-10l-2-1v-16c0-16 0-17 2-17 3 0 4-2 4-7 0-3 0-4-4-5-2-1-3-5-1-23a167 167 0 0 1 20-68l1 4zm-141 57c21 9 53 18 84 24l19 4c2 0 2 0 2 14 0 12 0 14-2 15v6c0 3-1 4-3 4s-6 4-9 9c-3 4-2 4 2-2 2-3 4-4 6-4l2 1-8 13c-9 11-13 19-13 20l3-2 3-2c1 1-2 5-6 9l-1 1c1 1 3-1 7-6 4-3 4-4 3-6l-2-2c-2 1-1-1 0-2l5-7 10-12c2 2 1 60 0 61a526 526 0 0 1-97-28h-1l-1 2 35 13a591 591 0 0 0 65 16c2 0 2 2 2 14l-1 14-16-3c-28-6-58-15-78-23-14-6-30-14-31-16s-1-6 1-13l2-11 9 4 8 4c1-1-1-3-8-6l-8-5 2-11c5-24 4-23 2-38a1094 1094 0 0 1-9-59l7 3 15 7zm603-3c0 3-1 15-4 23a356 356 0 0 0-8 41c-1 8-1 8 2 24l4 16-1 2c-1 2-1 2 1 2l2 2c2 6 4 20 3 21-1 4-24 15-45 22-20 7-68 18-77 18l-3 1-1-13c0-14 0-16 5-16a497 497 0 0 0 7-3l-8 1v-40l-1-40c-2-1-2-3-2-13l1-14 6-2 56-12c22-6 45-14 57-21 5-3 5-3 6 1zm-351 10c3 3 13 6 14 5v-4l-2-3 3 1 5-1c2-2 3-2 5-1h4c3-1 6 1 6 4 1 5 6 5 6 1s2-6 6-5h7c4-1 4-1 10 2s7 3 9 2l6-1c3 0 4 1 7 4 4 5 7 3 5-3-1-4 0-6 2-3s5 9 4 12l-3 3c-5 2-30 3-47 2a178 178 0 0 0-32 0l-17-1c-14 0-16-1-15-5 0-4 3-9 5-11 3-3 8-2 12 2zm140 24c1 2 2 3 5 4 5 2 8 11 4 15l-14 2-42 2a587 587 0 0 1-119 0l-14-1 2-1c2 0 3-4 3-10-1-7-3-9-7-8h-2l3-3c3-4 6-5 7-2l5 11c2 3 10 9 11 7l3 2 4 2c1 0 3-3 3-6s2-2 2 1l5 3c5 1 7 1 8-1l2-2 2 2c1 3 6 3 8 0l3-3c3 1 5-3 5-8-1-5 0-7 7-7 7 1 8 2 8 7 0 4 2 6 7 6 6 0 6 0 7 4s4 5 6 4c1-1 2-3 2-10v-9l2-1c2 1 3 2 5 8 0 2 1 3 2 3 3 0 4-2 5-8 1-5 1-5 4-6 4 0 8 4 8 8l2 6 2 3 2-3 2-7c0-5 0-5 3-6 3 0 5 0 7 2 4 3 6 4 9 1 3-1 3-1 5 3 2 3 4 4 5 1 1-2 3 0 3 3s2 6 5 6c2-1 3-7 1-13l-1-5c1-2 4 1 5 4zm-118 62a2335 2335 0 0 0 1 86c-2 1-3-2-3-9l-1-52-1-46c0-2 0-2 2-1l2 22zm173 36c0 17 0 21-2 25-1 4-1 4 1 9 2 3 2 5 2 7-1 2 0 4 1 5 2 2 7 3 7 0l1-1a196 196 0 0 1-34 121c-2 0-5-6-5-10 0-5-2-7-9-6-4 1-4 1-3-2 0-3-1-4-8-5l-9-2h-7c-5 1-22 1-25-1-4-1-2-4 9-9s12-6 20-6l19-2c11-3 14-5 12-8-2-1-3-1-26 1-15 2-20 2-18 1 0-1 6-2 13-2l16-2 20-3c18-2 24-4 24-6 0-3-3-4-7-4h-4l3-4c7-8 5-9-11-7l-18 2-12 1c-6 1-9 1-6-1 4-2 1-5-6-6l8-1 13-2 10-1c5-1 6-1 8-3 4-3 4-5 1-6l-24 2c-18 2-23 2-27 1-6-1-8-3-3-3l7-1c11-5 21-8 25-8l9-5c6-6 12-8 17-8l9-2c4-2 4-2 4-6s0-5-3-6l-4-5-2-3-2-2c0-2 0-2 2-1h3c2-1 2-4 2-16 0-14 0-14 2-15s3-2 3-8l2-8c1-3 2 3 2 22zm-254 1 2 9 6 27-1 2-5-21a256 256 0 0 0-4-19c1-2 2 0 2 2zm-200 13 10 6c2 3 38 15 64 22l22 5h4c1-1 10 0 11 2l2 11c2 44 16 86 40 119a180 180 0 0 0 181 72 184 184 0 0 0 125-99 220 220 0 0 0 24-101l6-2h18l60-16 16-6v18a537 537 0 0 1-37 176c-32 74-86 128-156 155a269 269 0 0 1-94 19 285 285 0 0 0 86-13l7-3 16-6c4-2 4-2 4 0-1 2-1 2 1 2l2-3c0-2 2-3 6-5l5-3 2 2 2 2h-2c-1 0-2 0-1 2l2 1c2 0 1 3-1 5v2l2 4c0 4 6 2 7-2l1-4c0-3 1-4 3-4 4-1 5-3 5-6s0-3-2-3l-3-1-5-1c-6 1-6 0 0-3 4-2 7-3 4-1v2c2 1 2 1 2-2s1-4 5-5c2 0 3 0 2 2l-1 3v3c-1 1-1 2 1 2 3 1 4 0 4-4 0-2 1-3 2-3 6 0 11-2 11-5l-4-2c-2 0-4 0-5 2-4 3-5 4-5 2v-1l-2-1 2-1 2-2 9-8a343 343 0 0 0 110-186 531 531 0 0 0 16-129l19-8a818 818 0 0 1-27 195 351 351 0 0 1-88 147l-3 2h-3l-2-1-1 3 1 1h2l-2 1-2 2-1 1c-1-1-2 0-2 1l-2 2-2 1-2 1-2-2c0-3-4-2-5 0s-1 2 2 4l1 3-4-2c-3-1-8-2-8 0l2 2c5 2 5 5 2 6l-3 1-2 1-2 2-1 1-5 3-5 2v1c0 2-12 9-15 8l-2 1c0 1-8 6-12 7l-3 1-4 2-5 2-3 1-3 1-25 8a283 283 0 0 1-169-8l-13-5c-15-6-42-21-61-35-48-36-86-93-108-163l-5-16-3-12-4-16a727 727 0 0 1-16-160l10 5zm270 18c0 10 0 13-2 16-2 5-3 2-4-11l1-16c3-7 4-4 5 11zm72 39-7 2h-33c-4-1-4-1 3-1l11-1h26zm21 0c2 1 2 1-5 2-6 0-12-1-11-2h16zm-161 10c-2 2-16 1-25 0l-6-2h14l16-1c2-1 3 1 1 3zm62-2h20l-3 2a116 116 0 0 1-56 1l2-1 4-2a442 442 0 0 0 34 0zm86 0c2 2-5 3-13 3l-10-1c-6 0-1-1 7-2h16zm-38 6c7 1-3 4-14 3l-6-2c0-3 12-3 20-1zm57 1c-14 4-17 5-30 5-13-1-18-1-18-3h22c3-2 8-3 21-3 6 0 8 0 5 1zm15 16c0 2-7 3-23 4-15 0-57-1-56-2l25-1 31-1h23zm-84 2c4 1 4 1-2 1h-32c1-1 28-2 34-1zm74 13c0 2-2 3-15 4l-14-1c-2-1-2-1 3-1l14-2c10-2 12-2 12 1zm-83 1c1 1 3 3 5 3 4 1 9 5 8 7a579 579 0 0 1-51-2l12-1c2 2 11-1 16-5 6-4 9-5 10-2zm22 20z" />
    <path
      d="m706 319-5 1c-5 1-5 2-1 3s11-2 10-3l-4-1zm40 65c-16 5-28 20-32 37-2 8-1 22 1 29 4 13 14 25 24 29 15 7 35 4 47-6 5-4 12-14 12-17 0-2-5-5-7-5l-3 3c-3 4-9 10-13 12-7 3-18 0-22-7-6-9-10-26-9-45 1-11 2-15 7-18 4-3 13-3 18-1 5 3 11 9 15 15 2 5 4 6 6 6l4-1c2-2 2-2 0-17l-4-15-6 1c-5 2-5 2-12 1-8-2-20-2-26-1zm-107 18c-2 3-5 5-13 6-10 1-17 5-22 11-5 5-6 10-6 20 1 12 8 23 17 28 5 3 18 4 27 3l13 1c8 1 12 5 12 11 0 7-7 12-18 12-8 0-14-3-22-9l-6-4-3 3-3 3 10 14c8 12 10 14 11 12 3-5 4-5 12-7 16-2 27-8 32-18 10-17-1-42-19-48l-22-1c-14 0-17 0-20-2-11-5-5-17 8-17 7 0 12 2 20 7l6 4 4-3 2-2-3-5c-15-21-16-23-17-19zm234 4v7l-21 24c-27 33-29 35-34 35-4 0-6 2-7 7-1 2 0 2 12 7l14 6 3-4 2-4-3-3c-3-2-4-4-4-6s6-11 8-11c1-1 21 6 22 8v9l-2 8h-3c-2 0-3 0-5 4v5l35 14 3-4c2-4 2-5 0-7l-2-5a2808 2808 0 0 1 9-87l-26-9-1 6zm-1 27-3 14-2 12-7-1-7-3c-2-1-1-3 8-13l10-12v3zm96 23c-3 3-3 3-2 6l1 4-8 9-25 26-18 17-3-2-2-2-3 2c-5 3-5 4 0 10l12 16c14 18 21 23 34 24 10 1 16-2 27-12 9-9 15-20 18-32 2-8 1-21-2-29-1-5-24-40-26-40l-4 3zm17 35c3 5 2 12-2 19-3 7-17 23-24 28-7 7-13 9-18 8-3 0-8-4-8-6l15-16a996 996 0 0 0 35-37l2 4zm-459-4-5 12 4 4c4 2 5 3 12 18l17 33c9 16 9 18 9 22-1 4 0 5 2 8l4 3 7-10 8-12-3-4-3-3-3 2c-4 3-6 2-9-3l-4-7 13-17 7 4c7 4 7 4 6 7-1 2-1 2 2 6l4 3 5-8a392 392 0 0 1 18-23l-3-3c-3-3-4-3-7-2s-4 1-12-3a1024 1024 0 0 1-62-36l-6 10zm23 30 10 6 5 4-8 12-14-25c0-2 1-1 7 3zm474 43-2 6-1 4-11 7c-15 8-41 20-42 19l-2-3c0-3 0-3-2-2-4 1-7 3-7 5 2 4 11 55 12 63 0 8-1 8 15 5l11-2v-11l-5-1c-8-1-12-6-15-14-3-12-4-10 10-17l13-6c2 0 1 6-1 10l-4 6c-2 1-3 2-2 5 0 3 1 5 2 5l13-6c10-6 12-7 12-9 0-5-1-8-3-7l-5-2c-4-4-4-6 2-10l8-5c7-4 7-3 7 8s-1 17-6 25c-3 4-3 6-2 8l2 4 9-8 9-8-1-6-5-30c-5-38-4-36-9-32zm-530 15-1 10c-5 10-4 27 0 40 5 15 16 28 27 33 12 6 26 4 34-5 9-11 11-32 3-48-2-6-9-16-11-16l-4 3c-2 3-2 3 0 5 4 5 8 14 8 19 0 10-4 15-14 15s-28-8-34-15c-6-6-7-14-4-22 2-5 7-8 13-9 5 0 6-2 4-7 0-3-1-3-10-7l-10-3-1 7zm308-21-2 4-1 4-2 5c0 3 0 4 2 4s9-14 9-17c-1-3-3-4-6 0zm-36 3c-2 2-6 8-6 12 0 2 3 4 5 3 1 0 2 0 2 2s2 4 4 4l3-3c2-4 2-4 4-2 1 2 4 1 6-3 3-5 4-11 3-13-2-2-5 0-7 6-2 5-2 5-5 3 0-1-2-2-3-1-2 0-2 0-1-3 1-2 1-6-1-6-1-1-3 0-4 1zm25 1c-4 7-4 13 0 12 3-1 6-7 6-11 0-3 0-4-2-4l-4 3zm-57 0c-3 5-3 8-1 9s6-4 6-8c-1-3-3-4-5-1zm19 3c-4 4-5 9-3 11 3 2 5 1 7-4s3-9 0-9c-2-1-1-1-4 2zm-30 2c-2 2-3 5-1 7 3 2 8-4 6-7-1-2-2-2-5 0zm92 2c-3 3-4 8-2 10h3c2-1 6-10 5-12 0-2-4-1-6 2zm-76 2c-5 6-3 12 2 11 2-1 5-7 5-10s-2-5-4-5l-4 4zm66 0c-3 6-3 10 0 10 2 0 6-8 6-11-1-4-4-3-7 1zm30-2c-3 4-4 10 0 10 2 0 7-8 5-10-1-2-3-2-5 0zm-13 8-2 5 4 3c2-1 5-8 5-10-1-2-5-1-7 2zm23 31c-2 3-4 8-3 11l3 1c3 0 7-8 7-12 0-2 0-3-2-3s-4 1-5 3zm9 5c-2 4-2 8 0 9 2 0 5-4 5-8 1-3 0-4-2-4l-3 3zm19 0c-4 7-4 14 1 11 2-1 5-7 5-11 1-2 0-3-2-3l-4 3zm-41 4c-2 4-2 5-1 6 3 4 7 1 8-6 0-4 0-4-2-4s-3 1-5 4zm31 0c-3 4-4 7-1 9 1 1 2 1 3-1l3-8c-1-3-3-2-5 0zm18 1c-3 3-3 7-1 8 4 3 8-5 6-9-2-1-2-1-5 1zm-102 2c-5 7-6 13-2 13 3 0 9-9 9-13s-4-4-7 0zm10 2c-3 3-6 11-5 13 1 5 6 1 10-8 2-2 2-4 1-5-1-3-3-3-6 0zm-34 2c-2 3-2 7 0 8 1 1 2 1 4-1l2-5c0-2 0-3-2-3l-4 1zm-11 3c-4 6-1 11 3 7 3-2 4-5 3-8s-5-3-7 1zm21 1c-3 2-4 6-1 8 2 2 4 1 6-3 2-5-1-9-5-5zm43 0c-5 7-6 14 0 14 2 0 7-12 7-14-1-3-4-3-7 0zm-76 2c-2 4-2 8 0 9s2 0 5-3 4-6 2-8-5-1-7 2zm64 1c-4 4-4 7 0 7 3 0 4 0 5-3 4-6 0-9-5-4zm19 5c-3 1-5 10-3 11s5-1 6-5c3-6 2-8-3-6zm89 12c-2 2-5 10-5 13l2 3h3c2-2 5-13 5-16-1-2-3-3-5 0zm-30 3c-3 7-3 10-2 11 3 2 6-1 8-6 2-7 1-9-2-9-1 0-3 1-4 4zm10 1c-3 3-3 9 0 9s5-4 5-8c0-2 0-3-2-3l-3 2zm29 1c-3 3-4 10-2 11 3 1 6-2 6-6 2-6-1-9-4-5zm-20 0c-3 4-2 10 2 10l4-9c-1-2-4-2-6-1zm-27 2c-1 0-4 5-4 8 0 6 6 3 8-3 0-5 0-7-4-5zm-30 5c-4 3-1 10 3 7 1-1 1-1 2 1 1 3 4 2 7-3 3-6 1-10-4-5h-3c-1-2-3-3-5 0zm16 3c-4 5-1 11 3 6 3-3 3-8 0-8l-3 2zm50 14-3 4c-1 3-1 3-2 1-2-2-5-1-7 3-1 3-3 4-3 2s-4-1-5 1c-2 2-2 6 0 7l3-2c2-2 3-2 3-1 1 3 4 2 6-1s2-3 4-1c1 1 1 1 4-2 4-5 6-8 4-11h-4zm10 9-4 2c-3 0-4 1-5 2-2 3-3 6-2 8 1 3 4 2 5 0 2-2 3-3 4-2 2 0 3 0 5-3 3-4 3-8 0-8l-3 2zm-308-8c-1 1 0 6 1 8 2 1 3 1 5-1s2-2 1-4c-2-4-6-5-8-3zm8 8c-2 1-2 2-1 7 0 7 2 9 5 7 1-2 2-2 4 0 4 3 6 2 6-2 0-2 0-2 2-1 2 3 4 2 4-1 0-2-4-7-6-6l-1 2-1 2-4-2c-2-1-3-2-3-4-1-3-3-4-5-2zm20 4c3 10 4 12 6 12s3-5 2-7c0-4-4-7-6-7s-2 0-2 2zm-30 2c-2 2 1 8 4 8 1 0 2-2 2-5 0-2-4-5-6-3zm40 22c-1 3-1 5 1 9s6 4 6 0l1-4v-5c-1-3-6-3-8 0zm16 6c-3 3 0 9 4 9s4-6 1-8-3-2-5-1zm16 11-1 3c0 2 0 2-3 2-6 0-8 5-4 7 3 2 7 0 7-3 0-2 0-2 3-1 2 0 2 0 3-3s0-6-2-6l-3 1zm-72 1-2 2c0 3 5 5 8 5h2l-4 1c-6 0-7 2-4 6l4 6c2 4 5 4 6-1l3-6c2-2 2-3 1-5l-3-3-2-1c0-4-6-6-9-4zm34 7c-1 2 0 6 1 6l4 3c3 3 5 3 7 0 0-2-1-7-4-9-2-3-7-3-8 0zm36 5c-2 1-1 5 1 7 3 3 6 4 7 2 2-4-5-12-8-9zm-51 3-1 5c0 4 3 8 6 8 2 0 2-1 2-4v-5l1 2c0 2 3 5 5 4 3-1 3-5 2-8-2-2-4-3-6-1h-2c-1-2-5-3-7-1zm31 0c-2 1-3 5-1 7 2 1 6 1 7-1v-4c-2-3-3-3-6-2zm-39 10-1 6c0 6 0 7 2 7 3 0 4-3 4-7s-3-7-5-6zm65 4c-2 1-1 6 1 8 3 3 5 2 5-3 0-4-4-8-6-5zm-30 5c-2 2-1 4 2 6 4 2 10-2 6-5-2-2-6-2-8-1zm-12 5c-4 2 0 11 5 11 1-1 2-1 1-4l-2-6c-1-2-2-2-4-1zm-21 21v2l-2 1c-4 0-5 2-3 6 1 2 2 3 4 3l4-2c0-2 1-3 2-3 3-1 3-4 0-7-2-2-3-2-5 0zm11-1c-3 2 1 9 4 9 1 0 4-3 4-5 0-3-6-6-8-4zm-29 9c-4 3-1 9 4 9 2 0 3-1 3-4 0-2 0-3-2-5s-3-2-5 0zm3 13c-3 1-4 3-4 8 0 8 6 11 8 5v-13h-4zm-128-96c-2 3-1 11 1 13 2 3 8 4 8 2l-2-1c-4 0-6-4-6-10s0-7-1-4zm21 17 2 1c1 1 1 1-1 5-2 5-2 6 0 6l2 8-1 2 3-3c5-4 9-4 10 0 0 3 1 4 3 2 4-3 9-2 9 2 0 3-3 8-6 8-2 1-2 0-1-1l1-3 1-2c-1-2-5 5-5 7 0 4 4 2 9-4l7-6c4 0 4 1 1 7l-2 5 5-5c4-4 4-4 9-4 8 1 8 2 6 6l-3 6c0 1 13-12 16-17 3-4 2-3-4 3l-6 5c2-3 1-4-4-5s-6-1-9 1l-4 2v-3c1-2 1-3-1-4l-5 1-2 2c-2-4-3-5-6-4h-5c-2 1-2 1-2-1 0-4-6-5-9-1-2 2-3 1-3-1l-2-4c-2-2-2-2-1-6 2-4 2-6 0-6l-2 1zm532-20c-2 2-3 3-5 2-11-4-34 20-34 35 0 7 2 10 6 10l6-3 2-2c1 1-1 4-3 9-4 8-10 14-14 14-2 0-2 0-1-3 0-4-2-5-6-2-3 3-3 4 1 3 2 0 2 0 2 3-1 3 1 5 5 3 6-2 11-9 19-29l11-21c5-9 5-10 0-10-4 0-10 4-16 10-4 5-5 8-7 13-2 7-2 10 1 10 5 0 13-14 14-22l-1 4c-1 4-8 14-10 14-3 0-2-6 1-12 2-6 8-12 10-11l2-1c0-3 2-2 2 0 0 4-4 16-7 21-2 4-9 11-11 11-4 0-5-3-5-9 1-7 5-15 11-21 7-8 13-10 19-10 4 1 5 1 7-2l4-2 1-1c0-3-2-3-4-1z" />
    <path
      d="m1024 717-2 9c0 6 0 8-3 13s-3 7-3 11v5l4-3c3-3 6-4 6-1 0 2 1 1 4-2 3-4 6-4 6-1s0 3 2 0c3-4 3-6 0-7-3 0-4 0-6 3-3 3-4 4-4 1 0-2-2-1-6 2l-3 2c-2 0-1-6 2-12l3-12 2-8c1-3-1-2-2 0zm-9 14c-4 8-5 10-2 10 2 0 3-2 5-7l1-3-2 3c-3 3-3 2-1-2l3-4c1 1 1 0 1-1 0-4-2-3-5 4zm27 5-1 2 1 1c2-1 3 6 2 9 0 2 0 2 1 1l3-1 1-3c0-2 0-3-1-2l-2-4c0-5-3-7-4-3zm-35 12-2 5-1 4 3-2c2-1 4-1 4 1l-1 1c-1-1-6 4-8 8s-3 10-1 10c3 0 8-7 10-17 3-8 3-10-1-10h-3zm-491 97c-3 5-4 21-1 25 2 3 5 2 6 0 0-1 0-2-1-1l-3-2c-2-2-2-4-1-9a45 45 0 0 1 3-14l-3 1zm484 5-3 23c0 4 3 6 6 3 3-2 3-3 3-8 0-4 0-5-1-1 0 4-1 6-4 4-1-1-1-1 1-13v-4l2 3 1 4-1-4-3-8-1 1zm-492 18c0 4 5 16 7 16 3 0 3-2 1-4l-3-4c0-3-3-10-4-11l-1 3zm15 4-4 7c0 3 1 6 3 6 3 0 3-2 1-4-3-2-3-4 1-8 2-3 3-4 2-5 0-1-2 0-3 4z" />
    <path
      d="M1008 874c-2 3-2 4 0 2 2-3 2-2 1 2-2 6-5 8-5 3v-2l-3 3c-3 4-4 4-5-1v-1c3 3 2 2 0-3-3-6-3-6-4-4-2 3-1 9 1 14 2 4 2 4 4 3l2-2h2c3 2 4 2 7-5 4-8 4-16 0-9zm-481 9-4 6c-3 2-3 6 0 9 1 2 2 2 3 1 2-1 2-1-1-3l-2-3 6-10v-4l-3 4zm-20-1c0 2 5 13 8 15l3 2c2-1 2-2-1-4l-5-9c-3-5-5-8-5-4z" />
    <path
      d="M988 891c0 11 4 17 8 13 1-2 2-2 3 0h4c3-1 9-15 9-18-1-1-2-1-5 3l-3 5 3-3 3-3-3 8c-2 3-6 4-5 1 0-3-1-3-3 0s-5 2-5 0c-1-3 0-4 2-1h1c0-1-4-5-4-3l-1-4c-2-7-4-6-4 2zm-480 5c0 6 9 19 12 19 3-1 4-3 1-3-2 0-7-6-8-11 0-2-2-4-3-5-2-2-2-2-2 0z" />
    <path
      d="M982 899c-1 3 1 14 3 17 3 4 5 5 7 2 2-1 2-1 4 1l3 2c1 0 7-6 9-11 4-8 3-12-1-7-2 2-2 2 0 1 2-2 2-2 2 0 0 4-6 11-9 11-2-1-3-5-1-5l1-1-4 2c-4 4-6 4-8-1-2-4-3-9-1-6v-3c-2-4-4-5-5-2z" />
    <path
      d="M978 916c-1 3 0 12 1 14l3 2 3 3c-1 2 0 1 3-1 1-1 1-1 3 1 3 4 4 4 8 0 5-5 8-11 8-14v-3l-5 3-4 4 4-2c4-3 5-2 1 3-3 6-6 8-8 6s-1-5 1-6l1-1-8 4-2 1c-3 1-5-4-6-11l-1-7-2 4zm-467-1 6 12 4 3 4 2c3-1 2-3 0-2-2 0-6-4-9-11-2-5-3-5-4-6l-1 2zm18 11 2 4c2 1 2 2 2 8l2 8c3 2 6 3 8 0l1-2c-5 5-12-7-8-13 2-2 2-2-2-4l-5-1zm443 2c-2 3-1 17 1 21 2 5 7 5 10 0 2-4 2-5-1-3l-2 2c-2 0-4-4-5-8-1-7-1-9 1-9v-2c-2-3-3-4-4-1zm-458 0c-1 3 6 19 10 23 2 2 6 2 7-1 1-1 1-1-1-1-1 1-3 0-4-1-3-2-9-13-9-17-1-3-3-4-3-3zm489 7c1 4-7 18-10 18-2 0-5-4-5-6l3-4 4-3-3 2c-5 2-7 5-7 9 0 7 6 9 10 4 5-5 11-22 8-22l-1 2zm-469 16c-1 7 3 19 6 23 2 2 3 3 5 3 3-1 4-4 1-4-2 0-3-1-5-5-3-6-6-16-4-17 1 0 0-2-2-2l-1 2zm445 4-5 10c-4 7-5 10-5 13s1 3 4 4c2 0 3 0 4-2l6-16c-1-1-2 1-3 4-2 7-3 9-5 9-3-1-2-7 2-14 3-6 5-7 5-6l1 4v1-6c0-2-2-2-4-1zm-404 15c-2 3-2 3 0 6v5a892 892 0 0 1-33 30l-8 8-3-3c-3-2-3-2-5 0l-2 2a703 703 0 0 0 37 59l22-11-1-5-2-4-8 1c-6 0-8 0-12-2s-11-10-11-12l43-38 2-2 3 3c4 3 4 3 6 1l3-3c1 0-2-5-6-9l-13-18c-4-6-8-10-9-10l-3 2zm364 10c-7 3-15 11-35 34l-15 18c-4 4-3 6 0 9 3 1 3 1 6-1l2-2 18 16 23 22 5 5-1 3c-1 4-1 4 1 6l3 2 13-17c10-14 12-16 11-18-1-3-5-3-7-1-2 1-2 1-9-5-9-8-12-12-11-12l16 3 18 4c3 0 3-1 11-13 9-13 9-13 7-15-2-3-3-4-5-1l-3 1-27-5 2-7c3-12-1-21-9-25-5-2-9-2-14-1zm-4 26c8 5 10 13 5 22l-4 5-10-9-10-9 4-5c6-6 10-7 15-4zm-293 33-1 6v6l-10 9-25 22-13 13-4-1c-5 0-5 0-6 3s-1 3 2 6l21 15 2-4c1-3 1-3-1-5-4-5-4-7-2-10l4-5c2-2 2-2 12 5 6 3 11 7 11 8l-1 8c-2 6-2 7-5 7-2 0-4 0-5 2v5c3 2 32 21 34 21l3-3 1-4-2-2-3-3 7-41 7-42-2-3-13-8-10-6-1 1zm-3 31c-3 18-5 24-6 24l-14-9 19-18 1 3zm224-22-10 5a1111 1111 0 0 1-55 24l2 5c1 3 1 3 5 3 4-1 5-1 5 1a2235 2235 0 0 0 24 64l-4 3c-2 1-2 2 0 5l2 4 12-5 18-8a1024 1024 0 0 0 39-18l-1-16-1-15h-4c-6 1-7 2-7 8-1 7-4 14-9 19s-16 11-17 9c-2-1-11-28-11-29l6-1c5 0 6 0 9 4 3 3 5 4 9 1 2-2 2-4-9-31-1-4-2-4-6-1-4 1-4 2-4 7-1 4-1 6-4 8-4 5-5 4-10-9l-5-13c0-2 15-6 21-6s7 1 13 4c6 4 7 4 9 3 5-3 5-4 1-11l-12-17-6 3zm-134 26c-6 1-16 6-21 11-9 8-15 20-16 35-1 24 10 41 32 48 7 3 20 3 37 2 11 0 12-1 12-3a1351 1351 0 0 0 4-24c2-1 2-2 2-5v-5h-8l-17-2h-11l-1 4c0 4 0 5 3 5l2 1v8l-2 10c-2 4-12 1-16-5-5-9-7-23-5-43 1-15 2-18 7-23 3-3 3-3 9-3l10 1c6 3 13 11 16 17 3 5 3 6 6 6l4-1c2-2 2-2 0-15l-2-15-4 1c-4 1-4 1-13-2s-21-4-28-3zm-98 83 10 5 10 5 2 1 6 2a269 269 0 0 0 47 13 276 276 0 0 1-75-26zm289 2v4c0 2 1 2 4 2s3 0 3-3-1-3-4-4l-3 1zm173-28-1 26v121l-4 6c-4 8-16 20-23 24-13 9-35 21-42 24a907 907 0 0 1-417 26 334 334 0 0 1-166-70l-1-3-4-7-3-5-1 18c0 10 0 17 1 16h1l1-1v-2l9 8c16 16 40 30 70 41a748 748 0 0 0 194 38 1153 1153 0 0 0 207-10l52-11 16-4a215 215 0 0 0 27-8c6-2 14-6 25-13l20-12a112 112 0 0 0 33-23v4l-2 6-1 5-1 2c0 2-7 12-12 17-6 5-23 17-34 23-20 10-59 24-87 30a851 851 0 0 1-445-21c-16-6-30-14-42-23-7-4-18-17-21-23-1-3-3-5-4-5l-1-2v-1c-1 1-3-6-2-8l-1-1-1-2v-2c-2 0 1 11 7 22 10 20 30 40 57 55l16 14a94 94 0 0 0 29 20c-1 1 5 4 6 3l1 1c-1 1 4 3 7 3l2 2h3l1 1v1h2l1 1 2 1c1 1 4 2 3 0l3 1 3 2h2l2 1c-1 1 2 2 5 1l1 1h1l2 1h2l3 1c0 2 3 2 3 1h1c0 2 1 2 2 2 2-1 7 0 5 1h2l3 1c-1 1-1 1 1 1h3l2 2v-1h2l3 1h2l2 1v1l1-1h3l2 1c1-1 11 2 11 3h1c1-1 7 0 6 1h6v1l-1 1 2-1 2-1 6 1 9 1 6 2 1-1c-1-1-1-1 1-1l3 1 2 1 3 1a433 433 0 0 1 15 2l-2 1h2l3-1 2-1 3-1h3c0 1-1 2-3 2l-3 2h5l7-1h17c8 0 8 0 4 1l23 1 24-1-5-1h13l3-1 6-1 7-1 3-1c2 0 2 0 1 1-1 0-1 2 1 2l1-2 1-2 1 2c-1 1 0 1 4 1h6c1-1 9-2 12-1 1 1 1 1 0 0-2-1-2-3 0-3v2l2-1h1l2 1 1-1 4-1 4 1 2 1c2 0 2 0 0-2v-1l4 1h1c-1 1-1 1 1 1l2-1h1l3-1h5l3-1 1-1c1 1 9 0 8-1l2-1a269 269 0 0 0 124-55l18-15c31-19 50-42 58-68l2-9 1-96a6159 6159 0 0 0 0-79z" />
    <path
      d="M693 1300c-3 1-6 6-4 8 1 2 4 1 5-1 2-5 8-5 10-1 1 2 1 3-1 4l-5 2c-4 0-2 3 2 5 9 2 6 11-2 9-2 0-4-1-5-4l-3-3c-2 0-3 1-2 5 2 6 11 9 17 6 6-2 8-10 4-14v-4c5-8-7-18-16-13zm112 0-1 16v16h10c11 0 14-1 13-5h-17v-28h-2l-3 1zm-92 2c1 3 3 4 11 4l5 1-3 4c-4 5-7 12-8 17 0 4 0 4 2 4 3 0 4-1 5-6 2-6 7-15 10-19l2-4c0-2-5-3-17-3-7 0-7 0-7 2zm28 6-2 8 1 2h5c7-2 11-1 11 4 0 7-7 9-11 4-3-3-6-4-7-1s6 9 12 9c9 0 15-10 10-17-2-4-4-5-9-5-6 0-6 0-5-4 1-2 1-2 5-1 6 1 9 0 9-3s0-3-9-3h-9l-1 7zm33 1h-5l-4 1v11c0 12 0 12 2 12 3 0 4-2 4-10s1-10 6-10c2 0 3 2 3 12 0 8 0 8 3 8s2 0 2-8c0-10 1-12 6-12h3v10c0 7 0 9 2 10l3-1c2-2 1-19-1-22-3-2-7-3-11-1h-13z" />
  </g>
  <g fill="#FF0" stroke-width="0">
    <path
      d="M823 112c-6 0-8 1-9 2-2 2-2 2 0 2l5-1 7-1h3l10 1c9 0 10 0 6-2h-7c-1-1-7-2-15-1zm-329 16 2 3c1 1 1 1-1 3-2 1-2 2-2 6v4c-1 0-2 2-2 5l-2 3v2c0 2 0 3-2 5-3 2-3 3 2 8 15 12 58 25 108 32a3088 3088 0 0 1 53 6c69 8 170 8 248-1 58-6 98-13 118-22a81 81 0 0 0 23-12l2-4-1 1c-2 5-8-12-13-36 0-2-1-2-3-2l-5 1-24 7a675 675 0 0 1-181 22 1154 1154 0 0 1-241-12c-27-4-65-14-71-19h-8zm259 186h-13l-12 1h-2l-11 1a615 615 0 0 1-27 4c-5 0-11 2-8 2 1 0 1 1-1 1l-2 1 2 1c2 1 2 1 0 1l-4-2c-2-2-3-2-7 0l-10 2a281 281 0 0 0-118 52c-8 6-22 20-28 27-11 14-27 41-33 56l-3 8c-7 18-15 54-19 86-4 37-6 87-3 90l17 8c2 0 2-2 2-10a462 462 0 0 1 20-128 187 187 0 0 1 12-30l1-1 1-2 8-14h1c0-4 16-24 28-36 48-47 117-72 210-74a426 426 0 0 1 173 33 197 197 0 0 1 59 42c41 44 63 110 65 196l1 28 10-4 8-5 1-15a909 909 0 0 0-5-87c-4-33-14-70-23-90a222 222 0 0 0-35-57l-7-8-5-4-8-8c-8-7-30-22-42-28-36-17-54-22-107-31-17-3-21-4-36-5l-50-1zm-43 6c1 1-6 4-10 3s-4-2 1-3l5-1 4 1zM454 687l1 8 3 20c2 15 3 14-2 38l-2 11 15 8c2 0 12-20 12-24 1-4 11-19 13-19s3 2 0 6c-1 4-1 4 1 6l2 4c0 2 1 3 3 1 3-4 9-3 9 1 0 2 0 2 2 1h5c3 0 4 0 6 4l2-1c2-1 4-2 5-1 2 0 2 1 2 3l-1 3 4-2c3-2 4-2 9-1 5 2 6 2 4 5l6-5 8-9c0-1 6-10 8-10l3-1c1 0 2-1 2-4v-6c1-1 1-1-1-1a574 574 0 0 1-72-17c-2 0-2 0-2 3 1 3-1 10-4 13l-2 3-3 3c-5 4-5 4-7 9-3 9-10 18-15 18-3 0-7-4-8-8-1-3 0-6 1-5v-1l1-2c1 0 2 2 2 5h-1l1 2c2 4 6 4 8 1l5-10-3-4c-4-3-6-8-6-15l2-10c3-4 7-8 9-8s0-1-4-3l-20-10c-2-1-2-1-1 1zm608 7-39 15c-7 1-7 1-4 3 2 1 3 1 5-2 3-2 3-2 4-1l-2 6-2 10c0 5-1 8-3 12-3 6-4 12-2 12l3-2c4-3 6-4 6-1s1 1 4-2c2-3 3-3 6-3 3 1 3 1 4-3 1-5 4-5 4 1l2 4c1-1 1 0 1 2l-1 3-1 3-2 4-1 2-1 2-1 1-2 3c-2 1-2 1-2-1l-1-2c-1 0-8 6-7 7h-6c-1-1-2 0-3 1v1h1l-2 1h-2l-1 1-1 1-3-2c0-1-2 0-4 3l-2 2-2 1-2 1-1 1c0 2-3 1-3-1l-1-3c0-1 0-2-1-1l-1 1-5 4c-2 3-5 4-6 4l-3 1-4 1c-3 0-3 0 0-1s3-1-1-1c-3 0-4-1-5-2-1-2 0-5 1-5v-1c0-2 5-6 7-6l1 4c-1 3-1 3 1 3 4 0 10-6 14-14l4-9-3 2-4 2h-1l-2 1c-5 0-7-11-3-19 5-10 14-20 22-25h-1l-45 9-12 2v80l8-1 16-3a431 431 0 0 0 92-29c1 0 1-2-3-20-3-16-3-16-2-24 3-10 7-36 7-36l-7 3z" />
    <path
      d="M486 702c0 2-1 3-3 2-3 0-9 2-9 4l-1 2c-2 0-2 12 0 15s7 3 8 0c2-8 10-20 13-20s1-2-3-3c-5-2-5-2-5 0zm517 23-1 1c-1-1-2 0-3 1l-1 1-1 4c-5 8-7 16-3 16 2 0 9-10 9-14l2-3v-2c0-3 0-3 1-2h1c0-2-1-3-2-3l-2 1zm-433 18-6 9-6 8c-1 1-2 3 0 3l2 1c1 2 1 3-3 6-6 7-6 7-11 6l-1-2c0-2 0-2-2-1h-12l-4-3c0-1-1-2-2-1-3 2-6 1-7-1 0-2-1-2-5-1-4 0-5 0-6-2-2-2-2-2-5-1-3 0-4 0-6-2-1-1-2-2-4-1-2 0-3 0-4-2l-1-4c2-6-4 2-9 13-2 3-3 8-2 8l11 4a397 397 0 0 0 85 22c2-1 3-61 1-61 0-1-2 0-3 2zm439 12-1 2-2 4-3 6c0 3 0 3 1 2 2-1 3-3 4-6 2-3 2-4 1-5s-1-1 1-1v-2h-1zm-555 76c1 45 7 96 16 134l4 16 3 12 5 16c22 70 60 127 108 163 19 14 45 29 61 35l12 5a298 298 0 0 0 170 8 124 124 0 0 0 27-9l4-1 5-2 4-2 3-1c4-1 12-6 12-7l2-1c3 0 15-6 14-8l1-1 5-2 5-3 1-1 2-2 2-1 3-1c3-1 3-4-2-6l-2-2c0-2 5-1 8 0l4 2-1-3c-3-2-3-2-2-4s5-3 5 0l2 2 2-1 2-1 2-2c0-1 1-2 2-1l1-1 2-2 2-1h-2l-1-1 1-3 2 1h3l3-2 24-25c28-34 50-76 64-122a668 668 0 0 0 27-195l-19 8-1 21a531 531 0 0 1-22 133 344 344 0 0 1-103 161l-9 8-2 2-2 1 2 1v1c0 2 1 1 5-2 1-2 3-2 5-2l4 2c0 3-5 5-11 5-2 0-2 1-2 3 0 4-1 5-4 4-2 0-2-1-1-2v-3l1-3c1-2 0-2-2-2-4 1-5 2-5 5s-1 3-2 2v-2c3-2 0-1-4 1-6 3-6 4 0 3l5 1 2 1c3 0 3 0 3 3s-1 5-5 6c-2 0-3 1-3 4l-1 4c-1 3-2 4-5 4l-2-2-2-4v-2c2-2 3-5 1-5l-2-1c-1-2 0-2 1-2h2l-2-2-2-2-6 2c-4 3-5 4-5 6s-1 3-2 3c-2 0-2 0-2-2 1-2 1-2-3 0l-17 6-7 3-3 1-14 3a285 285 0 0 1-177-14l-3-1-2-2h-1l-1-1v-1c-1 1-4 0-3-1l-1-1c-1 1-6-1-5-2h-1l-3-2-2-1c-1 0-5-2-4-3l-3-2-4-2-2-2c-1 1-6-2-5-3l-1-1c-2 1-3 0-5-3-1-1-2-2-3-1l-1-1-4-5c-3-1-5-3-5-4h-2l-1-1-1-1-5-5-4-4h-2 1v-1l-2-2-3-2c0-2-1-2-2-2l-1-1-3-4-5-6-6-7a149 149 0 0 1-14-18 364 364 0 0 1-62-163c-4-26-8-79-7-91l1-6-10-4-10-5v26zm473 331c0 3 0 3-3 3s-4 0-4-2c-1-4 0-5 3-5s3 1 4 4z" />
    <path
      d="m517 849-2 10c0 5 0 6 2 8 3 4 4 2 3-10l-1-11-2 3zm485 9c-2 11-2 12 0 13h2c1-1 2-10 1-11l-1-2v-2l-1-1c-1-1-1 0-1 3zm-478 15-3 5c0 2 3 4 4 4l2-11c-1-1-1-1-3 2zm2 14c-3 5-4 6-1 8 2 3 3 2 4-2v-10l-3 4zm-14 0c2 5 5 9 8 9 3 1 2-1-4-7l-5-5 1 3zm496 2-5 5c-2 0-2 4 0 5 2 0 5-3 7-8 1-3 1-3-1-3l-2 1z" />
    <path
      d="m533 896-9 10c-1 1-4-1-7-4l-5-4 1 3 5 9c2 2 7 3 6 1s2-2 4-1c4 3 6 0 7-10 1-6 0-8-2-4zm453 7c0 2 3 11 5 11l4-2-1-1c0 1-4-3-3-4l-2-3c-2-2-2-2-3-1zm19 2-2 2-2 1c-1 0-2 0-1 1l-1 1c-2 0-1 4 1 5 2 0 5-3 8-7 2-5 1-6-3-3zm-470 10-5 6c0 3-1 3-3 2l-12-6 2 4 2 4c0 1 4 5 6 5l3-3c2-2 2-2 5-1 3 3 5 2 6-3v-12l-4 4zm447 3c-1 1 0 4 1 7 1 5 2 5 4 5s3-2 1-4l-1-3-1-3h-1v2l-1-1c-1-4-2-6-2-3zm22 3-6 4h-1l-1 1c-2-1-2 4-1 6 2 2 5 0 8-5 4-5 4-6 1-6 0-1-1-1 0 0zm-462 6-3 1h-1l-1 1-1 2c-2 3-1 8 1 11 3 4 6 4 8 0s2-14 1-16-2-2-4 1zm-25 2c-1 2 3 12 6 16 4 6 9 6 9 1s-4-11-8-11v-2l-3-3-4-3v2zm458 2c-3 2 2 17 5 17l5-4-1-6 1-2c0-3-4-6-5-4h-2l-1-1h-2zm22 5-4 4c0 2-1 2-2 2l-2 1v2c-2 1 1 8 4 8s11-14 10-17c-1-2-2-2-6 0zm-460 19c0 5 4 14 5 17l4 2c3-1 2-6-3-14-5-9-8-11-6-5zm440 8c-4 7-5 13-2 14 2 1 3-1 5-8 3-7 3-10 2-12l-5 6zm-543 341v2l-1 1h-1l1 2v2l1 2 1 1c-1 2 1 9 2 8v1l1 2c1 0 3 2 4 5 3 6 14 19 21 23 12 9 26 17 41 22l50 16a870 870 0 0 0 359 13c48-8 95-22 124-37 11-6 28-18 34-23a59 59 0 0 0 13-19l1-5 2-6v-4l-3 2c-3 5-11 10-30 21l-20 12a112 112 0 0 1-40 17l-13 4-15 4a1132 1132 0 0 1-118 19 1153 1153 0 0 1-208-5 748 748 0 0 1-127-31 194 194 0 0 1-80-49z" />
  </g>
  <path
    d="M743 491c-76 6-130 38-160 94a186 186 0 0 0-20 88v8l12 3 2-10c0-16 1-24 3-32 10-54 40-94 88-117 36-18 83-25 126-18 50 6 92 28 118 61 23 28 36 67 36 105 0 13 0 13 6 13l6-2c2-3 0-30-3-48-12-68-58-117-125-136-28-8-63-11-89-9zM449 660l4 24c3 6 33 18 68 27l53 11h2v-13c0-15 0-16-5-16a474 474 0 0 1-121-37l-1 4zm618 3a600 600 0 0 1-118 34l-1 13c0 12 0 13 2 14a373 373 0 0 0 112-30c9-5 8-4 11-22v-10c-1-2-2-2-6 1zM451 778c-2 8-2 11-1 13s17 10 29 15a448 448 0 0 0 96 27v-28l-7-1a373 373 0 0 1-115-37l-2 11zm606-2a517 517 0 0 1-105 30c-4 0-5 2-5 16l1 13c4 1 59-12 80-19 22-7 44-18 45-22 1-2-3-22-4-23l-12 5zm-494 67a216 216 0 0 0 11 77l4 10c13 36 40 73 70 95a186 186 0 0 0 150 36c52-12 93-41 123-87a236 236 0 0 0 38-122c1-8 1-9-4-8-8 1-8 1-8 13a215 215 0 0 1-88 162c-18 13-38 21-61 27a180 180 0 0 1-180-71 215 215 0 0 1-42-128c0-3-1-4-8-5-3-1-4 0-5 1z"
    fill="red" />
  <g stroke-width="0">
    <path
      d="M775 97c0 4 0 4 4 5 6 2 19 4 17 2l-5-1-8-2c-4-2-4-2-2-2l8 1 6 1-9-5-10-4-1 5zm-90 15-2 5c-1 2 0 2 6 2 5 0 6 0 5 1 0 2 3 3 7 3l6 2 9 2 6 3h-1c-2-2-25-5-25-3l5 1a245 245 0 0 1 30 6c3 0 2-2-2-3l-5-2h1l5 1h5l4 2c4 2 18 3 28 3h10l-8-3-16-6a275 275 0 0 0-68-14zm116 3c-3 3-2 3 10 6 9 2 16 3 20 2h2c1 2 2 2 5 1h6v1c0 2 2 1 2 0 1-2 9-2 19 0s17 2 21-1c3-2 1-4-6-4l-18-1a289 289 0 0 0-55-3l-1-1-2-1-4 1zM551 429c-9 8-23 23-29 31a311 311 0 0 0-48 197l19 7-6-3-6-2-6-3 1-24a291 291 0 0 1 5-53c1-10 5-30 11-54a162 162 0 0 1 13-30 100 100 0 0 1 13-25l2-4 7-10 22-24 9-9-7 6zm192 61a207 207 0 0 0-55 12l39-9a246 246 0 0 1 135 19c58 28 92 77 98 147a159 159 0 0 1 1 26v-31a224 224 0 0 0-19-67c0-2-11-20-17-27-29-38-75-61-130-69-14-1-39-2-52-1zm-318 47zm215-15-8 6-4 3c-2 0-18 15-18 16l3-2a201 201 0 0 1 27-23zm47 81zm-117 13c-4 11-7 29-7 35 0 3 0 3 1-2a287 287 0 0 1 6-33z" />
    <path
      d="M488 617c0 3 4 15 7 20l3 5 14 14-5-5c-7-7-14-19-18-33 0-3-1-3-1-1zm-14 85c-3 2-6 8-6 15s2 12 7 15c3 2 3 2 0 9-2 6-5 10-8 10-2 0-5-3-5-7l-1-3c-1-1-1 1-1 3 0 3 1 5 3 7 4 4 7 4 11-1 3-3 5-6 6-11l4-8c2 0 9-7 12-12 3-6 3-10-1-12-1-1-2-1-4 1-3 2-11 17-11 20 0 2-3 3-6 1-4-3-6-13-3-19 2-3 7-6 11-6 3 0 3 0 2-1-3-2-7-2-10-1zm21 11c-1 5-4 9-9 13-4 4-6 5-3 1 1-1 3-4 3-7 3-8 11-14 9-7zm527 3c-1 2-2 2-3 1-4-3-13 0-21 8-11 9-16 30-7 30 3 0 9-5 11-11 4-7 8-22 6-22l-1 4c-1 7-6 18-11 23-3 4-4 4-6 3s-2-6 0-12c4-11 19-23 26-21h4c2 0 6-4 6-5 0-2-2-1-4 2z" />
    <path
      d="m1018 722-9 15c0 2 2 0 5-6l5-8c2 0 0 9-2 14l-1 4c1 1 4-3 4-5l1-5c1-2 0-9-1-10l-2 1zm-531 16-5 9c0 1-2 7-6 13-5 11-6 15-3 15l9-17 9-13c2-1 2 1 0 4-4 3-4 8-2 11 1 1 4 0 5-2 1-1 1-1 1 1s3 5 5 5l3-2c2-2 2-2 3 1s2 4 4 4c3 0 3 0 12-10 3-4 5-3 3 1l-2 3 3-4 3-4h-2c-2-1-4 0-9 5l-8 7c-2 0-2-2 0-7l1-5-1 3-2 3c-2 0-1-2 2-5s5-4 6-2v1l-1 2 2 1c2 0 2-3 0-5-3-3-6-2-9 2l-8 8c-2 0-3-1-2-4 0-2 1-2 4-2 2 0 3-1 4-3 2-3 0-5-3-6-2 0-4 2-9 8-2 3-4 4-4 3l2-4c2-3 3-8 1-10 0-1-2 0-5 3l-4 3 1-2 1-1c0-2 0-4 2-6l1-1c-1 3 1 2 3-2l2-5c-1-2-3 0-7 6zm-48 19 1 14v-18l-1-15v19zm121-10a167 167 0 0 1-23 24c-1-1-2 0-2 1 0 3 4 2 8-2l3-5 1-1a128 128 0 0 0 17-21l2-4-6 8zm481-6-10 21c-3 4-4 4-5 0v-3l-2 2c-7 8-8 9-8 4 0-2 0-2-1-1-1 2-1 6 1 6 1 1 3 0 5-3 3-3 4-4 4-2 0 3 3 3 6-1 3-3 10-18 11-22v-3l-1 2zm-32 5 2 1c6-1-2 24-8 27-3 2-5 0-3-5v-2c-2 1-3 10-1 10 1 1 5 0 8-3 2-3 5-9 4-10l1-5 2-9 1-5h-3l-3 1zm35 7c-3 5-3 6-4 4l2-4c1-3 1-5-1-3-3 3-4 14-2 13s8-13 8-14l-3 4zm-46 6c-7 16-12 21-19 21-3 0-5-3-3-5v-2c-2 0-4 4-2 7s9 3 14-1c4-3 8-8 7-9l8-19 1-2-6 10zm-466-3-6 6c-1 3-4 5-5 5s-1-1 1-3 0-3-2-1c-2 1-2 3-2 4 1 3 4 4 6 1s3-3 3 0c0 2 2 5 4 5l9-13 1-2-1-2h-8zm3 2c-3 3-2 3 0 1l2-2 1 2c0 2-4 10-7 11-2 1-3-1-1-4l2-5-2 2-2 2c-2 0 3-6 5-8 3-1 3-1 2 1zm220 19a196 196 0 0 0 1-3l-1-17v20zm-316 27a224 224 0 0 1 0 30c1-1 1 3 1 16l-1 2-1 2-1 2c-1-1-1 2-1 7 0 6 0 7 1 6l1-6v-4l1-3c0-3 0-3 1-2 1 2 2 16 0 16-1 0-2 6-1 10v6l-1 11c0 9 0 9-2 8l-2 1h-1l-1-3-2-5v-15l-1-12 1-10c1 1 1 0 1-3l-1-5-2-1c-1-2-1-1-1 9a20800 20800 0 0 1 4 214h1c1-1 1-1 1 1l-1 2h-2v1a367 367 0 0 0 1 38c0-10 0-13 1-11v-2c-1-10 0-16 1-17v4c0 7 1 20 3 19l1 2-1 2-1 1c-2 4-1 9 1 13l2 6v18c0 29 0 30-2 31-2 0-2 1-2 22l-1 21a418 418 0 0 1-3-36 1574 1574 0 0 1 3 65l1 6-1 3c-2 0-2 0-1 1l1 5 1 4 1 2c0 6 10 18 22 27a231 231 0 0 0 76 36 620 620 0 0 0 26 5c-2 0-4-2-2-3s0-3-2-3l-2-2-2-2-1 3c1 2 0 2-1 2l-3-1-1-2c0-2-1-2-2-2-2 1-7-3-7-6l-2-4c-2-3-2-3-1-6l2-7 1-13v-11l-1-5c2-4 0-6-3-6-3 1-2 0 0-1 4-1 4-3 0-5-4-1-5-3-5-9 0-4 0-5-3-6-5-3-6-6-4-16l1-13-4-8-1-3 1-3-1-3-2-9v-7l4-2c3-3 4-4 4-6 0-4 3-10 5-11 4-1 2-5-2-7l-3-1h3c2 0 2 0 2-2l-1-2h-2l-2-2-3-5c-1-3-2-9 0-9l2-1h2l2 2 3 5 3 5v1h1l3 2v1l-1 2v1l-3-1c-1-2-2-1-2 1s0 2 5 1c3 0 5 0 4 1v2c0 2 1 2 2 1s3-1 3 1l-2 1h-1l1 1c4 0 7 2 7 3h-1l-1 1 4 1 3 2 4 5a515 515 0 0 0 1-2 299 299 0 0 1-46-58 471 471 0 0 1-63-195 1158 1158 0 0 1-10-125zm-5 105 2 1h2a214 214 0 0 1-2 29v-6l-2-4c-3-2-4-21-1-21l1 1zm78 221 1 3c-1 3 0 4 1 4 0 1 1 0 0 0l1-2c1-1 1 0 0 0l1 2 1 1 1 2c1 0 2 0 1 3-2 2-3 3-3 0 1-1 0-2-1-1l-2-1-2-4c-1-2-2-3-1-4v-3h2z" />
    <path
      d="m427 825 1 24h2l-1-1v-12l-1-7c0-2 0-2 1 0v-2l-1-14c-1-10-1-8-1 12zm238-18 3 15 3 12c2 0-3-25-5-28-1-1-1-1-1 1zm-191 11a512 512 0 0 0 26 170c18 53 43 93 78 127a253 253 0 0 0 182 73 226 226 0 0 0 32-2 513 513 0 0 1-75-3 271 271 0 0 1-94-35 180 180 0 0 1-30-22 199 199 0 0 1-48-53l-4-6-1-1-2-5-3-4-1-2v-1l-1-1-4-8-1-1-3-6-2-5-3-4-1-3v-3l-3-6-3-5-1-3-1-2-1-3-1-3-1-5-2-5-2-6-3-8-1-4-1-5-1-4-2-2-5-18h1c1 1 1 1 1-2l-1-5-1-4-1-4-1-2-1-1-1-3c0-2 0-2 1-1 0 2 1 1 2-3s1-4-1-6c-1-1-2-1-2 1-1 3-2 2-2-5a224 224 0 0 0-4-33l-1-3-3-54c2 0 4 2 3 4h1c1-1 3-1 13 3l14 4-9-4-22-9c-2-2-3-1-3 1z" />
    <path
      d="M518 843c1 1 3 12 3 22 0 5 0 6-2 7-1 1-2 0-4-2l-3-5c0-2 0-2-1-1-2 1 0 4 4 10l3 4 3-5c4-6 4-5 2-19-1-9-2-12-5-12v1zm442 4-2 15a233 233 0 0 1-24 93c9-19 17-41 20-56l2-10a257 257 0 0 0 4-42zm42 1c1 2 4 13 4 19 1 9-5 14-8 9l-2-4c0-2 0-2-1-1s-1 2 1 6c3 5 5 7 5 5l3-4c3-4 4-5 4-9 0-9-4-22-7-22l1 1z" />
    <path
      d="m527 873-2 10c-2 3-5 3-6 0v-3l-1 3c-1 2-2 3-4 0-2-2-7-12-7-15h-1l1 5v6l3 2c2 4 10 12 11 10l2-4c2-1 3-4 4-6s2-3 3-2-1 15-2 18c-1 4-4 4-6 1l-1-2-1 2-2 2c-3 0-12-14-12-19h-1c-1 1 0 3 1 6 3 4 3 5 1 5-2 1-1 9 2 14l3 5c-1 1 7 8 8 8l4 2 3 1v-3l-4-3 4 1c2 1 2 1 4-1 4-3 6-9 7-17 0-6 0-7-2-8h-3v-5c0-4 0-6-2-8-1-2-2-4-1-6l-1-5c-2-1-2 0-2 6zm9 21c1 3-1 12-3 17-2 3-3 4-5 4l-3-2c0-2-2-1-2 0 0 3-2 3-5 2-5-3-13-19-11-22l4 3c3 4 11 10 12 10l1-1 2-3 5-6c2-6 4-6 5-2zm475-21c0 5-4 15-9 18-3 3-6 3-4 1 1-1 0-2-2-2h-3l2 3a256 256 0 0 1 4 3l3-2 5-6c3-4 5-4 5-1 1 2 1 2 1 0s0-3-2-3v-14 3zm-3 23c-2 6-6 10-10 11l-1 1c1 1 7-2 10-5 3-4 4-4 4 1l-1 3 1-3v-10c2-5 1-4-2 2zm-468 17-1 11c-2 5-1 5 2 2l1-11c0-10-2-12-2-2zm442 1c0 2 3 5 5 7l3 6c0 1 2 2 3 0l4-3 7-4 3-2v-1c-1-2-2-1-4 1l-4 3-2 1c0 1-5 3-6 2l-1-2v-2c-1 1-6-4-7-6 0-2-1-3-2-3v3z" />
    <path
      d="m546 932-1 13c-3 4-4 4-7 3s-5-4-6-9c0-3-1-4-2-4-2-1-3-4-1-4l1 1 2 1c2 0 2-1-1-3l-4-3v3l-2 3c-2 1-2 1 1 2 4 3 6 6 6 11 0 8-4 10-9 5-3-2-9-14-10-19l-1-3c-1 0 0 5 3 12 1 4 5 9 8 12l5 1c3 0 4 1 4 2 1 1 1 0 1-1-1-2 1-7 2-7s4 4 9 13l4 13c0 4 0 4 1 2 2-3 1-8-3-17l-5-8 3-3c3-3 4-5 5-13 0-6 0-13-2-13l-1 10zm-24 88 1 2 2 4 3 3 1 1 3 6 3 6c0 1 0 2 1 1l1 1 3 4c2 2 2 2 1 0a737 737 0 0 0-19-28zm549 236c-2 2-3 4-1 3h1l-1 2-1 3c0 2 0 3 1 2l1 1-1 2-3 7c-1 6-5 20-7 23-1 2-1 2 1 3 2 0 3 1 0 3-1 1-2 2-4 1-2 0-3 0-4 2l-3 2-3 2c0 2-3 4-5 4l-4 3c1 1-2 4-6 6l-2 2c1 1 32-17 41-24 6-5 13-12 15-17v-4l-2-3-4-5-3-5c-2 0-3-3-3-8 0-7-1-8-3-5z" />
  </g>
  <g fill="#00F" stroke-width="0">
    <path
      d="m468 183-3 5-2 4s0 2-2 3a112 112 0 0 0-13 25c-1 0-2 1-1 2l-2 1v5l-1 1-4 3c-3 3-4 4-3 5v1h-1l-2 3c-1 2-2 4-1 5l-1 1c-1-1-2 1-4 3-4 7-5 14-5 30v47a201 201 0 0 0 1 51 332 332 0 0 0 0 64l-1 13 1 13 1 11a168 168 0 0 0 0 20c-1-1-1 7-1 17 0 17 0 18 1 8v41l1 52c2 1 2 1 1 3-2 1-2 4-2 19a4108 4108 0 0 1 3 152 238 238 0 0 0 1 38c-1-2-1-2-1 0l1 7v12l1 1h-2v2l2 2 1 5c0 3 0 4-1 3l-1 10 1 12v15l2 5 1 4 1-1h2c2 0 2 0 2-9l1-11v-6c-1-4 0-10 1-10 2-1 1-14 0-16-1-1-1-1-1 2l-1 3v4l-1 6c-1 1-1 0-1-6 0-5 0-8 1-7l1-2 1-2 1-2c0-13 0-17-1-16l-1-2 1-2v-26c0-14 0-25 1-23 1 3 1 2 1-4l-1-5c-1 1-1-5-1-15a8897 8897 0 0 0 3-195c1 3 1 3 1-3v-8l1-9v-9c0-7 0-8 1-5v-3c0-4 0-6 1-4l1-4v-6c-1-2 1-10 2-9l1-5v-4c0-3 0-4 1-3v-2l1-7c1-3 1-3 1-1s1 1 1-3l1-9 1-5 1-2c0-5 2-10 4-10l1-4 2-9c1-3 1-3 2-1h1l1-3-1-1 1-3c1-3 1-4 2-3v-2l1-5 2-2 2-4v1c-1 3 0 3 3-3l1-4v-1l2-2 2-1-1-1-1 1c0-1 2-7 4-8v2c-2 4 0 2 2-2l1-2-1-1 3-4 3-3 3-6 1-1 1-2c2-1 3 0 1 2l5-5 3-4 1-1 2-4 1-1c1 1 6-5 8-8l2-2-1 2 4-2c3-2 5-6 5-6l1-1c2 0 16-10 15-10v-1c2 1 15-6 14-8a491 491 0 0 1 225-41l20 1a1048 1048 0 0 1 89 15 310 310 0 0 1 88 36l3 2-3-2-3-2 5 4 3 2v-2l5 5 3 3c-2-2-2-2 1 0l3 3 10 9 1 1 2 1 1 1 1 2 1 1 4 6 3 3 1 2h2l1 1c-1 1 1 4 2 3l1 1 1 3c0 1 1 1 0 0v-1l2 2c0 3 5 10 7 10v2l2 3 3 3c0 1-1 1-2-1l2 4 3 4v2l1 1h1c-1 1 1 6 2 6l1 1a94 94 0 0 0 9 22c-1 1 2 12 3 11v2l1 2 1 2c1 1 1 1 0 0s-1 0-1 2l2 4 1 3 1 2v6l1 3c1 7 3 17 4 16l1 2c-1 1 0 7 1 15 7 46 8 72 6 202a1824 1824 0 0 1-16 260c-1-3-1-3-1-1l-1 4c0 2 0 2 1 1s1-1 1 1l-2 8c-1 5-2 7-3 7l-1 2c0 2 0 2 1 1l1-1-2 3-1 7c0 6-1 10-3 8l-1 2c1 4 0 8-1 6-1-1-1-1-1 1v5l-1 1-1 1v4l-1 3v-1c0-2 0-2-1 0v4l-2 4-2 3h2l-1 3h-1l-1 1v2h1l-2 3c0-2-2 1-2 3l1-1c1-1 1-1 1 1l-2 1-1 5h-1l-1 2v2c-1-1-3 4-3 5l1-1v-1 4l-2 2c-1-1-1-1-2 1l1 3-1 1c-1-1-1 0-1 3l-1 1c-1-1-4 6-3 8h-1l-2 2c-1 2-1 2 1 1s1-1-1 2c-2 5-2 5-2 2 1-3 1-2-2 2v4l-2 2c1-2 1-2-1 0l-1 3v1c-1-1-3 3-2 4l-1 1c-1-1-3 3-2 4l-1 1-3 3-1 2-1 2-2 4-1 1-4 4a298 298 0 0 1-18 24l-1 1-1 1-1 1-11 10a290 290 0 0 1-248 79 303 303 0 0 1-119-43c1-1 0-2-1-3h-4v-1l-4-4c-2-2-4-3-5-2l-2-1 1-1-3-3-3-2v2l-1-1c0-2-6-8-8-8l-6-4-7-5-2-3 2 1-1-2-4-4 1 2c2 2 2 2-1 2l-3-1-1-1h1l1-1-7-3-1-1h1l2-1c0-1-2-2-3-1s-2 1-2-1v-2h-4c-5 0-5 0-5-2s1-3 2-1l3 1v-1l1-2v-1l-3-1-1-1v-1c1-1-1-3-3-5l-3-4-2-3h-2l-2 1c-2 0-1 6 0 9l3 5 2 2 2 2c1 2 1 2-1 2s-2 0 0 1c4 2 6 6 2 7-2 1-5 7-5 11 0 2-1 3-4 6l-4 2v7l2 10 1 2-1 3 1 3 4 8-1 13c-2 10-1 14 4 16 3 1 3 2 3 6 0 7 1 8 5 10 4 1 4 3 1 4s-4 2-1 2c3-1 5 2 3 5l1 5v11l-1 13-2 7c-1 3-1 3 1 6l2 5c0 2 5 6 7 5 1 0 2 0 2 2l2 2c4 1 4 1 3-1l1-3 2 2 2 2c2 0 4 2 2 3s0 3 2 3l3 1 2 1 4 1 10 2 9 2 14 4c8 1 10 2 6 2l-6-1 7 2h11l8 1c2 1 1 1-3 1l30 5a867 867 0 0 0 374-36c7-3 10-5 4-3-3 1-4 1 0-1s7-5 6-6l4-3c2 0 5-2 5-4l3-2 3-2c1-2 2-2 4-2 2 1 3 0 4-1 2-2 2-3 0-3-2-1-2-1-1-3 2-3 6-17 7-23l3-7 1-2h-1l-1-3 1-3 1-2h-1c-2 1-1-1 1-3s3-2 3 5c0 6 1 8 3 8l3 5 4 5 2 3c1 3 0 5-7 14l-5 6 5-6 9-12 4-6v-56a6949 6949 0 0 1 1-207v-65a22493 22493 0 0 0 3-361 52615 52615 0 0 1 2-325l-1-3-1-3-2-4-1-3-2-4-2-3-3-5-2-4-1-1-1-2-2-3-1-3-3-4c-2-1-2-4-2-4l-4-8-4-8-2-3-2-3c0-1-1-3-3-3-2-2-3-2-6 1-5 4-12 8-21 11l-7 4c1 1 0 1-1 1h-3c1 1 0 1-1 1h-4v1h-1l-3 1-3 1-4 1h-3l-1 1c1 1 1 1-6 2l-7 1h-4v1c1 1 1 1-1 1-1-1-7 0-13 1-16 3-38 6-61 8l-25 2-11 1-6 1-21 1-22 1h-19l-18 1h-39a330 330 0 0 0-59-2l-15-1-13-1-4-1a648 648 0 0 1-88-10c-4 0-5 0-3-1 2 0 2-1-3-1h-6l-1-1-3-1a322 322 0 0 1-25-5l-1-1c1-1-6-3-11-2l-5-1-3-1-2-1-2-1v-1c3-1 2-1-5-1-5-1-11-4-9-5v-1h-3c-2 0-5-2-5-3 1-1-2-3-3-2h-1c1-1-9-11-10-11v1zm235 1115c-1 1-1 1 1 1h2l2 1 1 1v2l1 1 2 1-1 1c-1-1-2 3-1 7 0 2 0 2-1 1v2c2 2 3 10 1 11l-1 2v1l-4 1h-8l-7-3-2-2-1-4c0-3 0-3 3-3l3 3 2 2h2v1c-1 1 0 1 3 1l5-1v-4c-1-3-1-3-3-3-3 0-6-3-6-5l4-2c4 0 6-3 3-6l-4-2c-2 0-2 0-1 1 2 1 2 1 0 1h-2l-1-1-1 2c1 2-1 3-4 3-2 0-2 0-2-3 1-5 4-7 10-8h5zm107 15v14l8-1 9 1c1 4-2 5-11 5h-11l-1-16 1-16 3-1h2v14zm-76-12c3 0 3 1 3 4l-2 4c-1 1-1 1 0 0l1-2-8 12 1-1h1l-1 2c-3 1-4 5-3 8 0 2 0 2-1 1 0-1-1-1-1 1l-3 2c-2 0-3-1-3-3v-3l2-5 6-9c2-4 3-5 1-4l-2-1-3-1c-6 0-9-1-9-4 0-2 0-2 9-2l12 1zm27 2c1 3-4 5-10 4-4-1-6 0-5 3 1 2 2 2 6 2h4l3 1 1 1v3c2 3 2 14 1 12l-2 2c-2 2-2 2 0 1 1-1 1-1 0 0-1 2-10 2-15 1-3-2-6-6-6-9 1-2 5-1 6 1s3 3 4 2l1 1c-2 2 3 1 5-1s2-8 1-9h-10l-5 1c-2-1-2-1-1-3l1-8 1-4 1-1c0-2 2-2 9-2s9 0 10 2zm36 7c2 2 2 3 2 12l-1 11c-3 0-4-1-4-11 0-9 0-9-3-9-5 0-6 1-6 11v9h-6l1-9-1-9-1-1c0-2-4-1-5 1-1 1-2 4-2 10-1 7-1 8-3 8-3 0-3 0-3-5l-1-5v-1l1-7c0-6 1-6 3-6l8-1 6 1h6c4-2 7-2 9 1z" />
    <path
      d="m743 363-12 1a104 104 0 0 0-35 4 63 63 0 0 0-25 4h-4l-2 1c1 1 1 1-1 1-3-1-16 2-15 3h-1l-3 1-2 1h-1l-1 1h-1l-1-1-3 1v2l-3 1v-1h-3v1c1 0 1 1-1 1h-4l-1 1v1c-1-1-5 0-4 1l-1 1c-1-1-5 0-4 1l-1 1h-2l-1 1c-1-1-4 0-3 1l-1 1c-1-1-2 0-2 1l-2 1v-1c3-2 1-1-4 1l-4 3 2-1h1l-3 1-2 1-2 2c-2-1-8 2-10 5l-3 2h-2 1l1 1-3 1h-1l-1 1-3 1h1l1 1-2 1c-1-1-3 1-4 2-3 4-9 8-6 4l-2 2-2 2c2-3 2-3-1-1l-1 3-6 6v-1h-2l-1 2v3h-3l-3 2-1 2c3-2 2 0-2 4l-9 11-7 10-2 4-3 4a100 100 0 0 0-11 22l-12 29a414 414 0 0 0-16 107l-1 24 5 2 8 3 4 3 4 1 5 1c1 2 2 2 6 2 3 0 4 1 4 2h3c3 0 3 0 2 1h1c3 0 10 2 9 3 0 1 11 3 14 2v1l3 1h5l1 1c-1 1 2 1 7 1l2 1h3v-10l1-8v-8a138 138 0 0 1 11-46 128 128 0 0 1 26-49l3-4 3-5 2-2c2 0 3-1 3-2a94 94 0 0 1 22-19c5-5 23-15 38-21l6-2a217 217 0 0 1 115-14c59 7 104 30 134 69a149 149 0 0 1 18 28l1 2 1 3a214 214 0 0 1 17 82l1 10a581 581 0 0 0 83-21l3-1v-26c-3-93-25-157-70-202a227 227 0 0 0-120-61 124 124 0 0 0-32-6c1-1-13-3-15-2h-2l-17-1-15-1-17-1-18 1zm25 20 2 1h2c1 2 11 2 12 0h2l1-1h1c3 0 4 2 4 7 0 2 0 2 1 1s1-1 1 1c-1 2 0 13 1 11l1 6v6h-4c-6 2-6 2-6 0l-1-3v1l-1 1v-2l-5-8 1 1-1 1-1-2c1-1-5-7-9-8-5-2-13-3-13-2h-2l-1 1-1 1c-1 1-1 1 0 0l-2 1c-2 1-3 3-2 4l-1 1c-1-1-3 9-3 19 0 7 0 9 1 8s1-1 1 1c-1 3 0 15 1 15v1l1 2 1 1c-1 2 3 10 4 9l1 1c-1 1 4 6 8 7 5 2 13 1 15-2l2-1c-1 1-1 1 0 0l3-2c1 0 3-3 2-4l1-1c0 1 2 0 3-2 2-3 2-4 4-3h3l1 1 1 2c2 1 1 4-3 9l-1 3-10 9-1 2-1 1-3 1c1 1 0 1 0 0l-3 2-3 1-6 1h-8c-7 0-11 0-15-2l-7-2-4-4c-3-2-5-4-6-3 1-2-1-4-2-3l-1-1c1-1-5-9-5-8l-1-1v-3c-1-1-2-2-1-3l-1-1-1-1-1-10c-1-8 0-19 3-27l1-6 1-1h1c0-2 0-2 3-5l1-3 1-1c1 1 6-5 6-6l1-1 3-1 10-4 6-3h18zm-125 18 5 8-1-1h1l2 3 1 2 1 1c-1 0-1 1 1 2l2 2 1 1 1 3c2 2 2 5 0 8-2 2-5 2-10-2s-12-7-14-7h-1c1-1-1-1-5-1-5 0-6 0-5 1v1h-4l-2 2v1c1-1 1-1 0 0l-1 2-1 1c-1 1 0 3 1 5 2 5 7 6 22 6 14-1 22 0 29 4l7 3 1 1 3 5h1c-1 1 2 6 3 6l1 1 1 5v19l-1 5-1 1c-1-1-4 4-3 5l-1 1c-1-1-8 5-7 6h-1l-2 1-2 1-6 2-2 1c-5 0-16 1-15 2l-1 1c-2-1-4 1-4 3v1l-2 1c-1 1-2-1-10-13l-10-14 3-3c3-4 6-3 10 1l4 3h1c-1 1 3 3 4 2v1l2 1h2c-1 1 1 2 8 2 14 0 23-11 15-19-2-2-4-3-9-4h-13c-9 0-22-1-27-4-14-7-22-30-15-44 3-4 9-10 14-12l12-3c9-1 11-2 13-6 1-2 2-3 3-2l1 1zm246 3 12 5-1 4a773 773 0 0 1-7 66l-2 19 2 2 2 4-4 8-11-4a2782 2782 0 0 0-26-10l4-9 4-1v1l1 1c1-2 3-17 2-18-1-2-19-8-21-8-3 1-9 8-9 11s3 6 5 5l1 1v2c1 1 0 2-1 5l-4 4-2-1c0-1-13-6-15-5h-1c1-1-1-2-3-3-4-1-5-2-5-5l1-2 1-1v-1l1-1 5-1c3 0 4-1 9-5 2-3 4-5 2-4l3-3 18-21 18-21c5-5 5-6 5-12 0-5 0-6 2-6l13 4zm87 54 1 2 2 4 4 4 1 1c-1 1 3 7 4 6l1 1c-1 1 4 9 7 10v3l1 1 1 1 1 5 1 9c0 11-1 20-5 28-1 2-2 5-1 6h-1c0-1-6 7-6 10l-1 1c-1-1-5 3-4 4l-1 1c0-1-2 0-3 2l-3 2-2 1c-4 4-10 6-17 6-12 0-22-6-32-20a577 577 0 0 0-20-25c0-2 5-7 6-7l4 2 2 2 16-15 25-26 10-11-1-3c-2-3-2-4 1-7l3-4 2 2 4 4zm-434 23c6 4 8 6 3 3l-3-1 3 2 10 5 1 1c1 1 2 2 3 1l1 1c-1 1 3 3 4 2l1 1c-1 1 8 6 11 7h2v1l1 1h3l-1 1-1-1c0 1 6 4 7 3l1 1c-1 1 2 2 4 2l4 3 4 2c0-1 1-1 0 0-1 2 5 2 8 1 3-2 3-2 6 1 3 4 4 5 1 7v1h1l-2 2v1l-1 1c-1-1-3 2-3 3v1l-9 9-8 9-3-3c-3-2-3-3-3-5 1-3 0-4-6-7-6-4-6-4-8-2-1 1-1 1 0 0 2-1 2-1 1 1l-2 1-3 4c1 0 0 2-2 3l-2 2v-1 3l-1 1h-2l1 1h1l-1 1v1l1 2 2 2c1 0 1 1 0 0l1 2 1 1v1c3 2 4 2 7 0s7-1 8 2v6l-3 3v1c2-1 1 0-1 2l-7 8-3 5-4-3c-3-3-3-4-2-8 0-4-2-10-3-10l-1-1-1-1-1-1c1-2-6-15-8-15l-1-2-2-6-1-1c1-1-1-5-2-4l-2-1 1-1v-2l-2-2-1-1c1-1-5-14-6-13v-2l-1-1c-1 1-3-4-3-5l-2-1-2-2v-1h-3c-2-1-2-2-2-5l1-4 1-1c1 1 3-3 2-4l1-1c1 1 5-6 4-8h2l2-2 3-1 6 4zm487 90 2 11v1l6 40c1 0 0 6-2 8l-2 3v1l-4 3-3 3c1-2 1-2-1-1l-1 3-1 1-1 1h-2c-4-2-3-6 1-16 4-8 4-9 4-19 1-9 0-11-1-12l-1 1v1c-1-1-13 5-16 7v3c-1 3 2 6 6 6 3 0 4 1 4 4s-1 9-2 8l-10 5c-13 7-14 7-15 1-1-3-1-4 2-6 2-1 4-4 4-6 2-4 3-9 1-9l-12 5-12 6c-2 0 1 16 4 17l1 1c-2 2 10 9 15 9l1 5c0 7 1 6-14 9-13 2-13 2-13-7l-2-19-9-44 4-3c4-2 6-2 6 2l1 2c0 1 29-12 45-21l9-5v-4c0-4 0-5 2-6 4-2 5-1 6 10zm-532-4 2 2 2 1c2-1 8 1 7 2l3 1c2 0 2 0 3 2l1 3c1 3-2 11-3 8-1-2-8 0-9 2-1 1-1 1 0 0l2-1-2 3-5 6c-1 5-1 5-2 4s-1 0-1 3c0 2 0 4 1 3l3 4c2 5 2 6 0 3l-1-1c0 2 2 4 4 5l1 1v-2c1 0 4 3 3 4l2 1 1 1 2 1c1-1 2 0 2 1l2 1h1l5 1 5 3c-2 1 3 2 9 2l5-1 1-1c1 1 5-1 4-2l1-3v1l1 1 1-3v-1l1-5-1-5v-1l-1-3-1-1v-1l-1-1c0-2 0-3-3-6l-2-2v-1c-1-1 0-2 2-5s5-4 5-1l3 3 1 2 1-1v2c0 1 2 5 3 4l1 1c-1 1 0 3 1 3l1 2 1 4v2l1 2v12l-1 18c-1-1-2 2-1 3l-1 1-2 2-1 3-1 2-2 1-3 1-1 1 1 1h-3l-2 1c1 1 0 1-13 1h-8l2-1h-6v-1c1 0 1-1-1-1h-2l-2-1h1l1-1-3-1c-1 1-8-5-8-7l-1-3h-3l-2-4v-3l-1 1c1 1 0 1 0 0l-2-4v-1l-4-6c-2-4-2-7-2-13 0-5-1-6-1-4l-1-7c0-10 1-17 3-16l1-1 1-3h-1v-4l2-8 1-4v-1h3z" />
    <path
      d="m867 435-2 3-1 1-5 5c-2 2-3 4-1 3l-1 2c-1 2-2 3-3 2l-2 2c-1 1-1 1 0 0l6 2 4 2 1 2h4l4-25c0-2-2-1-4 1zm113 53 1 1-8 8-9 10-5 6-5 6-1 1-10 10c-11 11-11 12-4 15 7 4 17-2 32-18 13-15 17-25 15-34-1-4-4-7-6-5zm-434 30c-1 2 0 3 1 4l2 2v3h1l1 1c-1 1 0 4 1 3v1l2 3 2 3c-2 3 1 1 4-4s5-9 3-7l-1-1-12-8-2-1c-2-2-2-2-2 1zm196 6c-15 2-36 6-43 9l-3 2 1 39a20109 20109 0 0 1 1 63h2l1-3c2-4 7-2 7 4l-2 4c-1 3-1 3 1 4 4 1 4 2 1 4l-1 3-1 1 1 1h4l1 1c-1 1 1 1 4 1 5-1 6 0 7 2v3c-1 1 1 1 5 1l6-1a570 570 0 0 1 82 1c3 2 8 7 8 9h1v2l1 1h2l6 1c7-1 9 0 6 3l-1 2c4 2 5 3 6 2l1 1c-1 1 5 2 19 3l2 1 1 2c2 0 5 3 8 7l5 6 2 7c0 3 1 4 3 4l8 2c8 3 9 6 9 18v10l-4 4c-6 6-7 5-8-8-1-7-4-14-6-16l-3 1-1 29a592 592 0 0 1-3 38c-1 0-3-1-3-3l-2-2-2 2-3 2c0-1-1-1 0 0l-1 1-1 14a75 75 0 0 1-2 17l-1 6h-4c-1-2-2-4-2-10 0-5 0-8-1-7h-3c-3 1-4-3-4-18v-15c-1-1-8 0-8 1 0 2-3 3-4 2l-2-6h-1c-4 1-5-2-5-10 0-12-3-34-5-36-2-3-6-5-5-3v1c-2 0-2 2-2 11l-1 13c-2 1-2 1-4-1s-2-2-2 2l-1 31v27l-3 1c-4 1-6-4-6-12 0-5-2-6-3-2l-3 4c-1 0-4-3-4-6l-1-2v-6c1-9 0-15-1-13h-1l-2-2-3-2c-2-2-2-3-1-10 1-9 0-23-1-23l-1-1c1-1-5-2-6-1l-1 15c0 23 0 22-3 23l-3 1c-1-1-1 5-1 12 1 12 0 14-1 16-2 1-2 1-4-1l-2-1-1-1-1 24c0 18 1 25 2 26h2c1-1 2 0 5 1 5 1 10 0 11-3 0-3 9-3 11 0 1 2 4 3 10 3l4 1 8-1c1-2 2-2 6-3 2 0 3 0 4 2 3 4 3 4 7 0s7-5 8-3h2l1 1 2 1v-1l1-1 4-1 8-2h7c1 0 2 0 2 2l1 1 1 1c0 1 5 0 8-2l5-3c2-1 4-3 5-7l4-5 5 2c4 2 6 2 6-1 0-2 0-2-2-2-4 2-5-1-5-40 0-30 0-31 2-33l4-1c3 0 13-5 16-9l4-2c2 0 3 3 2 4v1c2-1 5 3 5 4-1 1 0 2 1 3 4 3 4 6 5 33a5440 5440 0 0 0 2-112 153 153 0 0 0-70-129 115 115 0 0 0-37-16l-1-1h-2l-19-5h-3l-7-1-6-1a157 157 0 0 0-43-1zm65 31v4l-2 2-2 3 4-1c3 0 3 0 3 2l1 3v-1c0-2 0-2 1-1 0 1 1 1 1-1l1-2 1-1h5c1 2 1 2-1 7l-4 6c-2 1-4 0-4-2l-1-3v1c0 2 0 2-1 1l-2 2-1 3h-2l-3-3-2-2-3-2-2-1c-2 1-2 1-1-1h-1c-2 2-5 2-5 0l-1-2v1c0 2 0 2-1 1l-2 2-1 3-4 1-3-1-1 1c-2 4-5 5-7 2-2-2-3-3-2-4h-1c-2 2-5-1-5-3s0-2-1 0c-2 2-2 2-1 0 0-2 0-2-1-1l-1 4c-1 2-5 2-6 0-2-1 0-8 3-11 2-3 5-4 6-1h1l1 2 1-1 1-3 3-2h4c3 1 3 2 2 4l-1 2c2 2 5 3 7 3l1-2v-1l2-2c1-4 4-5 7-2l2 3 1-3c3-4 6-4 6 0 0 2 0 2 1 1l1-1 2-3c2-3 2-4 4-4s3 1 3 4zm-69 4c0 3-3 8-6 8l-2-2-1-1-1 2h-1l-2 3c-2 2-3 2-4 1-2-2-1-7 2-8h4c1 2 3 1 5-3s5-3 6 0zm0 5h1c3-2 6 0 6 4v3l-1 3-1 2-1 1-4 1c-3-1-3-1-3-5l1-5v-1l-1 1 4-5-1 1zm102 1c0 1-2 7-4 9-4 3-6-2-3-7 3-4 6-5 7-2zm-12 7c0 2-2 8-4 9-3 1-5-2-4-5 1-5 6-8 8-4zm23 32 1 2v1h1l4-1c2 0 2 1 1 8-1 2-4 4-6 4l-1-5v-3h-1v1c0 2-3 5-7 5-2 0-3-4 0-10 2-6 8-8 8-2zm28 3-1 4c-1 4 0 6 2 3l4-2c3 0 2 7-1 10-3 2-6 0-5-3l-1-3h-1c1 2-3 5-5 5-3-1-3-6 1-12 2-3 6-4 7-2zm-41 6-2 6-1 2h-2c-5-1-5-6 0-11 3-3 5-2 5 3zm29 2c1 3 1 4-2 6s-2 2-4 1c-3 0-2-4 0-8 3-4 5-4 6 1zm-82 1 1 4v-2l1-1h7c1 2 1 2-1 7l-5 8c-3 2-3 2-4 1-4-5-4-5-6-4-3 0-5-2-5-5l1-2 3-4c2-4 4-5 6-5s2 0 2 3zm-24 4c0 2-3 8-5 9l-3-1c-2-2-3-5-1-4l1-1c0-4 7-6 8-3zm-12 2c1 3 0 6-3 8-2 3-5 2-5-2v-2l-1 2-1 2-3 3c-2 2-3 3-5 2h-2v-8l2-2 2-2h2l3 1 2 1c2 0 2-1 2-2v-1h1c1-3 6-2 6 0zm21 5-1 3-1 1-2 2c-2 1-5-1-5-5v-3l1-2 1 1h1l2-2h2c2 1 2 2 2 5zm44-3-1 5c-2 3-2 3 0 2l1-1 2 2c2 0 3 0 3 2v3l-2 2c-2 6-7 6-7 1l-2-2c-2 0-5-1-5-3l-1-1c-1 0-2-1-1-2h1l3-5c2-4 3-5 5-5l4 2zm-13 2c1 1 2 2 3 1l-1 1-1 1-1 1-2 4c-3 3-6 2-7-3-1-2 1-5 2-4l2-1c2-2 3-2 5 0zm107 19c0 3-2 12-5 15-1 2-4 1-5-3-1-2-1-2-2 0s-3 3-5 1c-3-3 0-10 4-10 2 0 3 1 3 3-1 4 1 4 2 0 1-6 3-9 5-9s3 1 3 3zm-28 3-1 4-1 3c-1 3-4 4-8 2-2-1-2-1-1 1l-1 2c-1-1-1-1-1 1l-2 2c-4 0-5-2-4-6 2-7 7-9 8-4 0 2 1 1 2-2 3-7 4-8 7-8 2 0 2 0 2 5zm8 0-1 5c-1 3-2 4-4 4s-2 0-2-5c-1-4 6-8 7-4zm29 2c0 3-2 9-4 10-3 0-4-1-4-4 0-7 7-12 8-6zm-77 6h2l2-1 2-1 4 4h1l3-1c3 0 3 5 0 8-2 3-4 2-5-2l-1-3-2 3-3 4c-1 0-5-4-4-5l-1 1c-3 2-5 1-5-3 0-5 5-8 7-4zm65 17c2 1 0 7-4 11-3 3-3 3-4 2-2-2-2-2-3 0-2 5-7 6-7 2l-2 1c-3 3-6 2-6-1 0-4 6-8 8-5l2-2c2-3 3-3 6-3 2 0 3-1 4-3 2-3 4-4 6-2zm11 9c1 5-3 10-6 10-2 0-3 0-5 2-3 4-7 0-5-5l1-2v-1l3-3c1-1 1-1 0 0 0 2 5 1 7-1l3-1 2 1zM667 550l-4 1h-2l1 1h1l-1 6c0 4 0 4-1 2l-1 14 1 17v2c-1 1-2 5-2 19v16c1-2 1-1 1 2-2 10-2 21-1 20s1-1 1 1v1l-1 1h2l1 1c-1 1 0 2 1 2s2-1 1-2c-2-3-1-5 3-5l5-3c3-3 3-3 2-9v-10c0-3 0-3-1-2l-1-1c1-1-1-8-2-7l3-18c1-6 1-7-1-11-1-3-2-7-2-21v-18l-3 1zm-27 19h-1c-1-1-1 6-1 45l1 21 2 1a519 519 0 0 0-1-67z" />
    <path
      d="M610 606a98 98 0 0 0-12 31c-1-1-5 18-5 21v2l-1 15-1 15c-1 1 0 3 3 5 3 3 3 4 3 8l-3 5-1 1-1 1-1 14-1 14 1 2 1 1 1 1c2 1 4 5 3 8 0 3-4 4-5 3s-1 0-1 1c0 3 0 3 1 2h3l4 1c2 1 3 2 2 4-1 4-4 5-8 2l-2-2v52a264 264 0 0 0 12 104h1c-1 3 7 22 8 21l1 1v2l1 1c-1 1 1 5 2 5h1c0 2 8 15 9 15l1 1c-1 1 6 10 7 9l1 1a126 126 0 0 0 27 27c4 7 39 26 43 23l1 1a156 156 0 0 0 125-5c15-9 36-24 36-27l-6-1c-5 1-9 2-17 6-11 5-13 6-17 3-4-1-7-1-25 1-11 1-11 1-13-1-3-4 4-8 15-10l7-2v-1h-17c-4 1-4 1-7-1s-4-6-2-7l25-1c22-1 34-2 36-5l-4-2-7-2-8-2-12-3c-6-2-11-3-15-1-2 1-1 2 9 3 12 2 15 3 15 6 0 1-1 2-10 3-15 2-22 1-31-4-2-2-7-1-23 3-6 2-7 3-5 3 2 1 2 1-1 1-1 1 0 1 4 1h5l1 2c2 1-3 6-7 7-3 1-6 0-11-1-7-2-8-2-13 0-9 2-16 1-25-4-5-3-9-4-13-5-3 0-8-1-11-3-5-2-6-2-13-1-8 0-10 0-16-7l-11-10c-8-7-9-11-3-10a1338 1338 0 0 1 36 2l18 2 10-1-6-3c-6-4-9-4-19-2l-12-1-11-2c-4 0-13-4-26-11l-8-3c-3-1-4-2-5-4l-4-4-2-4c0-2 4-2 20-1h12l-3-5c-5-5-14-8-22-8-6 0-11-2-14-5-5-5-2-6 21-3a335 335 0 0 0 35 2l-4-3c-4-2-4-2-3-3 2-2 0-4-5-4l-9-3c-5-2-6-2-17-2h-11l-5-4c-4-2-6-4-8-9-5-8-3-9 10-7a399 399 0 0 0 45 2c-3-3-2-4 6-5 8 0 13 1 13 3s17 4 20 2v-1h-2c-1-2-12-6-18-6l-10-3-5-3-2 3-8 2c-6 0-9-3-12-9-1-3-3-4-5-5s-4-1-17 1c-5 0-6 0-8-2s-2-2-1-5 2-4 6-4l7-3 6-3c4 0 12 5 13 7s3 3 8 4c8 2 8 3 11-1l3-2v-11l-3-16c-1-6-1-5-1 3-1 8-5 9-7 1-1-7-2-2-2 9 0 12 0 12-13 6-9-5-10-5-15-4-6 1-8 1-9-3l-2-2v-5l1-7c2-1 6-1 8 1 2 1 2 1 3-1 2-3 3-4 6-3h5c2-2 2-2 4-1h1v-3c0-3 1-3 3-4 2 0 3-1 3-4 0-4 2-6 4-6l2-1c1-1 1-2-1-4v-6h7l1-1 1 5-1 3h-2l1 1 1 1v1c-1-1-1 0 0 0 0 2 7 4 10 3l1 1 1 2c1 0 3 2 2 3l1 1 1-2c0-1 0-2 1-1v-1l1-4c1-2 0-3-2-4l-2-2v-1c-2-1-6-9-6-11l3-2c2 0 2 0 0-1v-3c-1-3 4-8 5-5 1 1 0 1-1 1h1l3 4 2 1h1c1 1 1 1 1-2s1-4 5-2c1 1 2 2 2 5l-1 4v1c1 2-3-1-5-3h-2c-1-1-1-1-1 1 0 3-2 4-5 2l-2-1 1 1v1l1 1 2 1-1 1-1-1 4 3c3 1 3 1 5-1 2-3 3-4 7-1 2 1 3 4 5 9l3 7 1 1c-1 1 0 4 1 8l2 7v-5c1-4 0-7-1-12s-2-8-1-9v-2l1-1h1l2-2c1 0 2-1 2-3-1-3-1-3-4-4h-8c-2 0-2-1-2-3s0-3 3-4c4-1 6-3 4-6-1-2-2-3-5-2-5 0-8-2-6-4l2-2 4-2c3-2 3-3 2-5l-1-2-4 3c-5 3-7 3-7-1l1-3c2 0 3 0 3-2l1-4v-1h-1c0-2-1-2-2-2h-1l-1-2c-2-2-2-2-1-5l1-5-1-6c1-3 1-3-1-3l-4-1-3-1h-1v-3c-1-1-2-2-6-1-5 0-8-2-8-6-1-4-3-5-7-2-6 5-7 3-8-8-1-4-4-8-5-6l-1 1h-2c-2 2-3 0-3-3 0-4 2-7 5-9 2-1 3-1 5 1l3 2v-4c1-4 0-4-3-5l-3-2c-1-2-3 1-3 4l-1 3-1 1c2 1-1 3-4 2h-6c-2 2-2 2-4 1-1-1-2-7 0-7 1-1 0-2-2-3-2-3-3-5 0-7 1-2 1-2-1-4l-1-4c0-2 1-2 4-2s4 0 2-1v-1c2 0 1-3-1-4-5-2-6-4-6-17 0-9-1-13-2-12zm-1 69 2 4 2 2c2 0 3 1 3 4 0 2 0 2 1 1h1s1 2 3 2c2 2 3 2 3 1-1-4 2-5 4-3l2 2v-1c-2-1 1-3 5-3l3 2c0 2 0 2 1 1v8c0 4-4 4-6-1-1-3-1-3-2-1 0 2-2 3-4 1l-1-1v2c-1 3-5 4-8 1-1-2-2-2-3 0-3 2-5 1-5-3l-1-6v-4c1-1 1-1 0 0s-2 1-4-1c-2-1-4-6-3-8 2-2 6-1 8 1zm-3 13 1 4c1 3 1 3-2 4-1 0-3 0-4-2v-6h5zm43 20v8l-1 3c0 3-1 4-3 3s-5-6-5-9 3-6 6-6l3 1zm14 8v2c2 3 0 7-2 7h-3l-1-1h-1v-3c-1-3 0-6 3-6 3-1 3 0 4 1zm16 12c0 3-1 7-4 7h-1l-1-1-1 2-2 3c-1 1-1 1 1 1 3-1 7 1 7 4l2 2v1c-1 5-7 3-10-3l-4-4c-2 0-3-1-3-4s1-4 7-4l2-2c0-3 1-4 4-4l3 2zm-70 0 1 3 1 1 3 1c3 4 3 6 0 9-1 1-3 3-3 5-1 5-3 5-6 1l-4-6c-2-3-3-5 0-6l2-1-2-1c-2-3-3-5 0-6h8zm35 8 3 3v6l-1 1-2 1c-2 0-10-8-10-10 0-5 6-5 10-1zm-18 6 1 2h1c2-2 5-1 7 2 3 4-1 10-5 7-1-2-2-2-3-1l1 1h1c2 0-2 3-4 3-3 0-6-5-6-8 0-4 3-7 5-6h2zm31 5c0 3 0 4-2 4-4 0-6-1-6-5 0-2 2-4 6-4 2 1 2 1 2 5zm-41 8 2 4c0 4-3 7-5 7s-3-1-2-6c0-8 1-10 5-5zm39 7 1 1c-1 3 0 4 1 3l1 1-2 1h-2v1l-2 1h-2l-1-1-3-5c0-2 2-3 5-2h4zm-16 5 2 6-1 5c-4 1-7-3-7-6 0-5 3-7 6-5zm-19 22c1 2 1 7-1 7l-2 2-4 2c-3 0-5-3-5-7 0-2 1-2 3-2l2-1c0-1 2-4 4-4l3 3zm11-1c1 1 2 2 2 5s0 3-3 3-6-3-6-6c0-4 3-5 7-2zm-31 7 3 4c1 3 1 4-1 5-3 3-8 0-8-5 0-3 2-5 3-5l3 1zm3 14 1 1v6c-1 6-2 9-4 9-5 0-7-12-3-15 3-2 5-2 5-1z" />
    <path
      d="M645 665c-2 5-3 7-1 7l1 1c-1 1 1 4 4 6l2 2h-1l3 1 7 1a139 139 0 0 0 31 1l-3-4h-2c-2 1-10 0-11-2l-2-1v-1h-1l-3 1-3-7h-1c-1 1-1 0-1-1 1-1-2-2-3-1l-1-1h-1l-2-1c0-1-5-3-6-2l-1-1-1-1c-1-1-3 0-4 3zm67 5c-2 1-7 13-7 15l2 1h1a1144 1144 0 0 0 104 1c5-1 9-3 7-4l1-1c1 0 1-2-2-8-1-2-2-3-3-2l-1-2c1-1 1-1 0 0v3c1 3 1 6-1 7l-4-3c-3-3-4-4-6-4l-4 1h-9c1 1 1 1 0 0l-2-1c0-1-6-4-9-3h-8l-6 1v2l-1 2-2 3c-2 0-5-3-4-5l-1-3-1 1h-8c-2 0-3 0-2-1v-1l-2 2-4 1-2 1h-1v1l1 3c0 2-3 2-10-1l-5-2-1-1c1-2-4-4-7-4l-3 1zm-28 24-2 2c-2 2-2 4 0 3l3 2c3 2 3 16 2 18-1 1 1 1 12 1l15 1a468 468 0 0 0 115-3l20-1 23-1c2-2 2-3 2-6-1-6-3-8-6-9-2 0-4-1-5-4-2-4-4-5-4-3l-1 1 1 3c2 6 1 12-1 13-3 0-5-2-5-6 0-2 0-2-1-1h-3c-1 0-5-3-5-5l-1-2-1 1v1h-3c-1 2-4 1-8-1-3-3-8-4-6-2l-2 1c-2-1-2 0-2 4v5l-1 1-2 3c-2 0-5-3-5-8l-1-3-1-1c-1-1-1-1 0 0v-1l-2-1-1-1-3-1c-3 1-4 1-4 5v3l-1 3c-1 3-1 3-4 3-2 0-3-1-3-4l-1-3-1-2-2-2c-1 0-2 1-1 2l-1 1v7c0 6 0 8-2 9-1 2-1 2-3 1l-3-4-1-1-1-1c1-1 0-2-4-2-6 0-8-2-8-6l-1-4c-1-2-1-3-4-2l-5 1v-1l-2-1c-2 1-3 1-3 7s-2 9-5 8l-1 1-1 1-2 1c-2 3-7 3-8 0 0-2 0-2-1-1l-1 1h-1c-1 2-2 2-6 2l-6-3h-1l-1-1-1 2-1 3c1 2-5-1-7-3l-1-1c-1 1-9-3-11-5l-1-2c0-1 0-2-2-3l-2-6c-1-3-2-4-4-4l-2 1zm326 43-1 1-1 1v1c1-1 1 0 0 0l-1 1-1 2c-1 1-1 1 0 0v2l-2 2v1l-1 3c-8 18-10 23-8 22l1-2v-1h2l1 2v-1c0-3 0-4 2-5l2-4 1-2v-2l3-8c2-5 3-6 5-5l4-2c2-2 2-2-3-2-2 0-2 0-2-2 1-3 1-4-1-2zm-444 2-2 4-2 4a134 134 0 0 1-16 18l-2 4-1 1c3-1 4-1 4 2s2 3 3 1h3v-4l-1 1-2 2 1-2v-4l1-1 1-1 1-2c1 1 8-9 8-11 0-1 0-2 1-1l1-2c0-2 1-2 2-2h1c-1-1 0-2 1-4 2-1 3-3 2-3 0-2-4-2-4 0zm175 8a3093 3093 0 0 1 3 97l1 1v-2c2 0 2-1 2-5 0-3 0-5-1-4l-1-17c0-41 0-47-1-43-1 3-1 3-1-3l1-11c1-4 0-21-2-21h-1v8zm273 7-2 10c0 2 0 2-2 1-1-1-1-1 0 0v3l3-2 3-2h1v-3l3-3 2-2v-2l2-1 2-1-2-1h-4l-1 2h2l-1 1h-2c-1 0-2-1-2-4l-1-4-1 8z" />
    <path
      d="m1031 751-3 1h-1l-2 2-1 1h-2l1 1 1 1v1h-2l1 1c1-1 1-1 1 1-1 1-1 1 0 0h2l1 2 1-3v-1l1-1 2-2v-2l1-1h2l-1-1h-1c0-2 2-2 3-1l1 2v-2c-2-3-2-2-5 1zm-511 8c-4 4-4 6 0 4 3-1 4-1 1 1l-1 2c0 2 3 1 5-1l1-2-2 1c-2 3-3 2 0-2v-2h-1l2-2h2-1l-1-2c2-3-1-2-5 3zm21-2v1l-1 2-3 6-3 6 1-1h2c2 0 3-1 5-4l1-1c-3 2-4 2-2-1v-1l2-3 1-1-1-2c1-2 0-2-1-2-2 0-2 0-1 1zm374 24c-1 7-1 8-4 9-2 0-2 0-2 15 0 11 0 14-2 15h-3l-2 1 2 2 2 4 4 4c3 1 3 2 3 6 0 5-3 7-13 8-7 1-12 3-15 7-4 3-8 6-13 6l-10 3-11 4-6 3-2 1c-1 1-1 1 1 1l2-1h2c2 0 2 1 1 1-1 1 0 1 3 1s4 0 3-1h2l19-1 18-2c5 0 5 3 1 6-3 3-4 3-8 3h-7l-20 3h-4l3 1c4 1 6 3 4 5s-1 3 9 1l16-1 14-1c8-2 11-2 11 1 0 2-1 4-4 7l-1 2-1 1h3c8-1 10 5 2 7l-14 2a1556 1556 0 0 0-27 6l16-1c3 1 3 4 0 5-4 3-25 7-33 7-6-1-7 0-11 2l-10 5c-6 3-8 5-6 7 2 1 22 2 25 1h10l7 2c7 1 10 3 8 6-1 1 0 1 4 1 7 0 8 1 8 7 1 5 3 9 5 8 3-1 14-19 19-34a208 208 0 0 0 14-85c-1 3-6 2-7 0l-2-6-2-8v-8c2-5 2-9 2-25 0-14-1-21-2-21l-1 8zm-233 9-3 3-1 2a1331 1331 0 0 1 12 46c-1 4 0 4 6 4h6v-6c0-7-1-9-3-7-4 3-6 0-7-10-1-8-3-17-4-16l-1-2-1-8c-1-5-2-6-3-5v-1l1-3-3 3zm47 26v25l1 4 1-1 1-1c1-1 2-4 2-9 0-10-1-23-2-20-1 2-1 2-1 0 0-1-1-1-2 2z" />
    <path
      d="M477 827a373 373 0 0 0 4 57l4 25c0 7 1 8 2 5 0-2 1-2 2 0 2 1 2 1 1 6-1 3-2 4-2 2-1-1-1-1-1 1l1 3 1 1 1 2 1 4 1 4 1 5c0 3 0 3-1 2h-1l5 18 2 2 1 4 1 5 1 4 3 8 2 6 2 5 1 5 1 3 1 3 1 2 1 3 3 5c2 3 3 4 2 6l1 3 1 3 3 4 2 5c-1 1 2 6 3 6l1 1 4 8v1l1 1 1 2 3 4 2 5 1 1 4 6 8 11 2 3 3 4 5 6a199 199 0 0 0 32 30l28 21a275 275 0 0 0 214 29l7-2a277 277 0 0 0 157-141 253 253 0 0 0 23-59c0 2 2-2 8-26a134 134 0 0 0 4-21l6-34a490 490 0 0 0 2-70l-3 1c1 1 0 1-1 1-3 0-5 0-4 1l-1 1-6 1-5 2-2 1-22 5-29 7c-11 2-11 2-11 13a249 249 0 0 1-10 59c-19 59-57 105-107 129-32 15-60 21-94 19-26-1-47-7-70-18a201 201 0 0 1-47-31h-1c1-1-3-5-8-10a188 188 0 0 1-26-33l-1-1v-1l-1-2-3-5-3-5-1-1-2-6-3-7-1-1-1-1v-2l-2-3-6-16v-3l-1-1-1-2-1-6-1-3-1-5-1-2c0-7 0-7-1-6-1 2-2-5-1-10l-1-3-1-4c0-15 0-15-1-12l-1-9v-12c0-1-10-3-12-2-2 0-2 0-1-1s1-1-2-1h-2c1-1 0-1-2-1-3 1-16-2-14-3v-1l-4-1v2c-6-2-7-2-6-3l-3-1h-3c0-2-3-3-5-3-1 0-1 1 1 1v1l-14-4c-10-4-12-4-13-3h-1c1-2-1-4-3-4v8zm43 16c2 1 3 10 4 23l3 1h2l1 5c-1 2 0 4 1 6 2 2 2 4 2 9-1 5-1 6 1 5v-2l2 1c2 2 2 3 2 9-1 7-1 7 1 7 3-1 3 0 3 8v8l3-1c3 0 3 0 4 4 1 6-2 21-4 21l-4 1-1 1 2 1c-1 1 1 5 4 10 4 9 5 13 2 17 0 1-1 1 0 0h-2c-2 2-2 2-5 1-2-1-5-7-5-9v-2c-1 0-2-2-2-6l-1-8c-1-1-1-1-1 1v2c0-2-1-2-2-2-3 1-7 0-7-1h1v-2l-3-2-2-1 1-1h1l-2-1c-1 1-3-2-3-4v-2c-1 1-2-2-4-8-1-2-1-3 1-3 1 0 1-2-1-5v-2c2 1 2 1 0-2-1-4-2-7 0-7v-3h1l1-1-2-1c-2 1-6-8-6-12 0-3 3-6 4-4l-2-5v2l-1-2c-2-2-3-5-2-6 0-1 1-1 1 1 1 2 1 2 1-1v-12c1 2 1 2 1-1l1-3c1 1 4-4 4-6l1-8 1-5v-1c0-1 1-2 2-1 2 0 2 0 1-1v-1l2 1zm484 7c1 2 4 13 4 18 0 3 0 4 1 3l1-1h1c1 1 1 7-1 12l1 2c1 0 2 1 2 3l-1 2-1 1c1 1 0 5-1 5l1 4c1 1 0 8-1 8v2l-2 3c-3 2-3 3-2 4s2 2 1 3l1 2h1l-1 3-1 1c-1-1-1 0-1 3l-1 1v2c1 4 0 14-2 12v1l-2 4-1 2-1 1-1 1-3 3c-2 3-4 3-6 3-3-1-4 0-4 4l-2 5-1 5-1 1-1 1c1 1-4 8-6 8-1 1-3 0-4-1-3-3-2-5 6-20l4-7-3-1c-2-1-4-2-4-4-3-4-3-14-2-19 1-4 1-4 4-4l3 1-1-6c0-6 0-7 2-9l1-1 1 1 1-8c0-5 1-6 2-6 3 0 4-3 4-6-1-5 0-8 1-8 1 1 2-1 2-5s0-6 2-7c2-2 2-2 3 0l1-7c1-12 2-15 4-15s2 0 1-2l-1-1 3 3zM580 969l2 2 1 1 3 4 3 3c-1 2 5 10 6 9v1c0 1 5 7 6 6l1 1 1 2 1 1 1 3c2 2 2 2 0 5 0 2-1 3-2 3l1-1h-1c-2 1-2 1-6-2l-3-3-2 2c-2 2-2 2 0 1l3-2-5 4c-2 0-14 10-14 11l-1 2c-2 0-11 8-11 9l-1 2v-1l1-1c-2 0-7 5-6 7l-1 1c-2-1-8 3-8 5l3-2c4-3 5-4 2-1l-2 4c0 2 0 2-1 1-2-1 3 5 5 7l-1-1c-3-5-3-5 1-2 9 8 8 8 16 7 6 0 8 1 9 2h1l1 1v7l-1 2-1 1-1-1c1-1 0-1 0 0l-2 2-2 1c-3-1-14 4-12 5 1 1 0 1-2 1l-3-2h-1v-1l-3-5-4-5v-2l-2-1h1l1-1h-2l-2-2h1l1-1h-2c-1 0-3-2-3-4 1-2-4-9-5-9l-2-1h1v-2l-1-1-1 3-1-3c0-4-1-6-2-5l-4-6v-3l-1 1v1l-3-3-2-4-1-2c0-2 0-2 2 0 1 1 1 1 0 0l1-4c3-2 5-3 5-1l3 1h2l1-1 1-2h1v2l4-3 4-6 1-1c1 1 13-10 12-11l1-1c1 1 16-12 16-13 0-2-1-4-2-3l-1-3 2-4 2-2 1-1 2 2zm373 12c9 5 12 14 8 26l-1 5 25 6c3 0 4 0 5-2 2-2 2-2 3-1 4 3 4 5 3 8l-1 2-1 1-8 11-7 9-19-4-17-3c0 1 3 5 8 9l10 9 3-2 2-2 2 2 3 4-25 34-3-3-3-3 2-3c1-3 1-3-1-5l-23-21-20-19-4 2-3 1-3-3-3-3 8-9 17-19c10-13 22-25 27-27 6-2 11-2 16 0zm-293 67 8 5-3 23-7 42-3 20 2 3c2 2 2 2 1 6l-4 3-34-23c0-3 3-7 5-7l2 1h1c2-1 4-14 3-15s-5-5-11-8c-8-5-9-6-11-5l-1 3-1 3-3 2 2-3 2-2-2 1c-2 2-3 9-1 7l3 2v2h-2l2 1 1 2v2l-1 1v1l-1 1c1 1 0 2-2 2l-3-1-4-4-4-2c1 1 0 1-1 1l-1-1-5-5-2-2h-1c1 1 1 1 0 0-2-1-3-5-1-7v-2l1-1h5l1 1c1 0 2 0 1-1l1-1c2 1 8-4 7-5l1-1 6-5 5-4 7-7 15-13 8-7v-6l1-6 6 2 12 7zm217 8 7 12-3 4c-3 2-3 2-6 1-9-6-12-6-18-6-5 0-20 4-20 5l5 13c5 13 6 14 10 9 3-4 4-7 4-11-1-2 0-2 3-4l5-2 5 10 6 15 2 7-4 3-4 2-4-4c-3-3-4-4-7-4-8 0-8 0-2 15l5 14c1 3 3 2 8-1 11-6 17-15 19-27 0-6 1-7 8-7h3l1 15c1 8 2 15 1 16l-6 2-16 8-46 20c-2 0-2 0-4-3v-5l4-3 2-2-11-27-12-32c-2-5-3-6-7-4-3 1-3 1-4-1l-2-5c-1-3-1-3 9-7a588 588 0 0 0 61-28l8 11zm-120 21c8 3 8 3 12 1h5l2 14c2 16 2 18-4 18-2-1-3-1-6-6-6-12-17-20-25-20-5 0-10 3-13 7-4 7-6 41-3 53 1 3 2 6 3 5v1c-1 4 8 11 14 11 3 0 4-2 4-12 1-8 1-8-1-8-3-1-3-1-3-6v-5h5a302 302 0 0 0 32 4c2 1 0 8-2 9l-1 1v1l-1 1-1 11-2 12a197 197 0 0 1-43 1c-24-6-37-23-37-46 0-16 4-28 14-37 14-14 31-17 51-10z" />
    <path
      d="m927 1005-7 6-4 4 10 9 10 9 3-4c6-8 5-15-2-21-4-4-6-5-10-3zm-292 64-1 3-1 1c-1-1-8 6-7 7l-1 1-3 1c-2 1-2 2-1 3v1l2 2h3l1 1c-1 1 2 3 6 4 1 0 2-1 3-10l3-12c0-2 0-2-1-1l-1-1c1-3 1-2-2 0zm142-203-7 1h11l-6 1c-5 0-4 1 5 1l9-1c-3-1-1-1 4-1h5c-3-1-14-2-21-1zm-82 9c-2 3-2 3 1 3a204 204 0 0 0 41 0l6-2v-1l1-1h-19l-23-2c-6 0-6 0-7 3zm103-1-8 1h9c7 0 9 0 7 1-3 1-3 1 0 1l4-1h2l1-1v-1h-15zm-37 5-2 1-2 1 11 2 5-1c3-1 2-3 0-3h-12zm54 2-7 2-7 2-5-1c0-1 0-2-4-2s-5 0-3 1l3 1h-3c-6 1 8 2 18 2 11-1 23-3 18-4h3c4 0 5 0 4-1h-17zm-91 7-9 2h37-3c-3 0-4 0-2-1 2 0 1-1-5-2l-8-1-10 2zm-63 0c2 2 15 3 36 3a405 405 0 0 1-23-3h-14zm172 9-11 1-10 1h6-8l-18 1h22c25 0 34-1 34-3h-15zm-402 15c-1 4 1 16 3 17l2 4v6l1 3c0-1 2-30 1-32h-2l-2-1c0-3-2-1-3 3zm314 3-8 5-2 1h-4l-8-1h-4l3 1h-3l-7 1c-1 1 24 2 31 1h15c7 0 10 0 9-1l-1-2-5-3-6-4h-1l-2-1c0-1-1-1-7 3zm84-3-6 1c-6 0-1 2 6 2 6 0 9-1 9-3h-9zm-108 22-4 1 12 1 8-1-3-1h3-16zm-289 141h-1l-1 1v1l-1 21v21l1-19a171 171 0 0 1 1-21v-1h1l1-2v-2l-1 1zm0 13v19l-1 10c1 12 0 15-1 14s-1 0-1 7a358 358 0 0 0 3 48 407 407 0 0 0 2 19c0-21 0-22 2-22 2-1 2-2 2-31v-18l-2-6c-2-4-2-9-1-13l1-1 1-2-1-2c-2 1-3-12-2-19 0-5 0-7-2-3zm78 42v3c-1 1 0 2 1 4l2 4 2 1c1-1 2 0 1 1-1 3 1 2 3 0 1-3 0-3-1-3l-2-2v-1l-1-2c1 0 1-1 0 0l-1 2h-1v-4l-1-3h-2z" />
  </g>
  <path d="M583 944a234 234 0 0 0 57 77l-11-12a220 220 0 0 1-46-65z" fill="#F0F" />
</svg>